<svg width="19" height="16" viewBox="0 0 19 16" fill="none" xmlns="http://www.w3.org/2000/svg">
<path d="M9.5 8.65753L3.00754 15.3097C2.78476 15.538 2.51424 15.6521 2.19598 15.6521C1.87772 15.6521 1.6072 15.538 1.38442 15.3097L0.334171 14.1847C0.11139 13.9564 0 13.6793 0 13.3532C0 13.0271 0.11139 12.7499 0.334171 12.5217L4.91709 7.82601L0.334171 3.13036C0.11139 2.9021 0 2.62493 0 2.29884C0 1.97275 0.11139 1.69558 0.334171 1.46732L1.38442 0.342318C1.6072 0.114057 1.87772 -7.43866e-05 2.19598 -7.43866e-05C2.51424 -7.43866e-05 2.78476 0.114057 3.00754 0.342318L9.5 6.99449C9.72278 7.22275 9.83417 7.49993 9.83417 7.82601C9.83417 8.1521 9.72278 8.42927 9.5 8.65753ZM18.6658 6.99449C18.8886 7.22275 19 7.49993 19 7.82601C19 8.1521 18.8886 8.42927 18.6658 8.65753L12.1734 15.3097C11.9506 15.538 11.6801 15.6521 11.3618 15.6521C11.0436 15.6521 10.773 15.538 10.5503 15.3097L9.5 14.1847C9.27722 13.9564 9.16583 13.6793 9.16583 13.3532C9.16583 13.0271 9.27722 12.7499 9.5 12.5217L14.0829 7.82601L9.5 3.13036C9.27722 2.9021 9.16583 2.62493 9.16583 2.29884C9.16583 1.97275 9.27722 1.69558 9.5 1.46732L10.5503 0.342318C10.6776 0.244491 10.8128 0.16297 10.956 0.0977516C11.0992 0.0325346 11.2425 -7.43866e-05 11.3857 -7.43866e-05C11.5289 -7.43866e-05 11.6721 0.0325346 11.8153 0.0977516C11.9585 0.16297 12.0779 0.244491 12.1734 0.342318L18.6658 6.99449Z" fill="#E1303C"/>
</svg>
