<svg width="56" height="56" viewBox="0 0 56 56" fill="none" xmlns="http://www.w3.org/2000/svg">
<path d="M46.0555 17.9554C45.7087 17.4723 45.4316 16.9427 45.2325 16.3824C45.1172 15.7728 45.0888 15.1499 45.148 14.5324C45.2923 13.4553 45.1275 12.3594 44.6729 11.3725C44.0393 10.4773 43.1637 9.78127 42.1487 9.36609C41.5928 9.11438 41.0755 8.78494 40.6123 8.38766C40.2153 7.92425 39.8859 7.40698 39.6339 6.85125C39.2188 5.8359 38.5228 4.95997 37.6275 4.32617C36.6409 3.87257 35.5458 3.70812 34.4694 3.85193C33.8515 3.91115 33.2284 3.88269 32.6185 3.7674C32.0578 3.56863 31.5279 3.29173 31.0446 2.9449C30.1651 2.26315 29.1084 1.8484 28 1.75C26.8915 1.84822 25.8346 2.26285 24.955 2.94455C24.4718 3.29119 23.9423 3.56807 23.3819 3.76705C22.7722 3.88142 22.1495 3.90987 21.5319 3.85158C20.4549 3.70757 19.3591 3.87233 18.372 4.3267C17.4769 4.96037 16.7811 5.83612 16.3661 6.85125C16.1144 7.40713 15.7849 7.92441 15.3877 8.38758C14.9243 8.7846 14.407 9.11404 13.8512 9.36609C12.8359 9.78118 11.96 10.4772 11.3262 11.3725C10.8726 12.3591 10.7082 13.4542 10.8519 14.5306C10.9112 15.1485 10.8827 15.7716 10.7674 16.3815C10.5685 16.9422 10.2914 17.4721 9.94446 17.9554C9.26287 18.8349 8.84827 19.8917 8.75 21C8.84822 22.1085 9.26285 23.1654 9.94455 24.045C10.2913 24.5281 10.5684 25.0577 10.7675 25.6181C10.8828 26.2277 10.9112 26.8505 10.852 27.4681C10.7077 28.5451 10.8725 29.641 11.3271 30.628C11.9607 31.5232 12.8363 32.2192 13.8513 32.6343C14.4072 32.8861 14.9245 33.2155 15.3877 33.6128C15.7846 34.0761 16.114 34.5932 16.3661 35.1488C16.6129 35.6482 16.8971 36.1284 17.2161 36.5852L12.3029 50.0836C12.2466 50.2385 12.2352 50.4061 12.27 50.5672C12.3048 50.7283 12.3844 50.8763 12.4996 50.9942C12.6148 51.112 12.7609 51.195 12.9212 51.2334C13.0814 51.2718 13.2493 51.2642 13.4054 51.2115L18.0496 49.6427L20.5994 53.8305C20.6776 53.9588 20.7874 54.0648 20.9183 54.1383C21.0493 54.2119 21.1969 54.2505 21.3471 54.2505C21.3753 54.2505 21.4043 54.2488 21.4334 54.2462C21.5974 54.23 21.7536 54.1678 21.8837 54.0666C22.0139 53.9655 22.1128 53.8296 22.1691 53.6746L27.1011 40.126C27.689 40.292 28.3114 40.292 28.8992 40.126L33.8313 53.6746C33.8875 53.8296 33.9864 53.9655 34.1166 54.0666C34.2468 54.1678 34.4029 54.23 34.567 54.2462C34.596 54.2488 34.6251 54.2505 34.6532 54.2505C34.8034 54.2505 34.9511 54.2119 35.082 54.1383C35.213 54.0648 35.3228 53.9588 35.4009 53.8305L37.9508 49.6427L42.595 51.2114C42.7511 51.2642 42.919 51.2718 43.0793 51.2333C43.2395 51.1949 43.3857 51.1119 43.5009 50.9941C43.6161 50.8762 43.6956 50.7282 43.7304 50.5671C43.7652 50.406 43.7538 50.2384 43.6975 50.0835L38.784 36.5844C39.1028 36.1277 39.3868 35.6478 39.6339 35.1487C39.8856 34.5928 40.2151 34.0755 40.6123 33.6123C41.0758 33.2153 41.593 32.8859 42.1488 32.6339C43.1641 32.2188 44.04 31.5228 44.6738 30.6275C45.1274 29.6409 45.2918 28.5458 45.1481 27.4694C45.0888 26.8515 45.1173 26.2284 45.2326 25.6185C45.4315 25.0578 45.7086 24.5279 46.0555 24.0446C46.7371 23.1651 47.1517 22.1083 47.25 21C47.1517 19.8917 46.7371 18.8349 46.0555 17.9554ZM21.1478 51.3652L19.1808 48.1344C19.0773 47.9646 18.9192 47.8352 18.7323 47.7673C18.5455 47.6994 18.3411 47.6972 18.1528 47.761L14.57 48.971L18.6347 37.8027C19.5598 38.1427 20.5518 38.2609 21.531 38.148C22.1488 38.0892 22.7719 38.1177 23.3818 38.2325C23.9426 38.4314 24.4725 38.7085 24.9558 39.0555C25.1333 39.1684 25.3171 39.2838 25.5047 39.3967L21.1478 51.3652ZM37.8472 47.761C37.6589 47.6972 37.4545 47.6994 37.2677 47.7673C37.0808 47.8352 36.9227 47.9646 36.8192 48.1344L34.8522 51.3652L30.4957 39.3971C30.6833 39.2834 30.867 39.1684 31.0446 39.0555C31.5277 38.7087 32.0573 38.4316 32.6176 38.2325C33.2273 38.1177 33.8501 38.0892 34.4677 38.148C35.4473 38.2615 36.4399 38.1429 37.3653 37.8019L41.43 48.971L37.8472 47.761ZM44.5789 23.1046C44.1309 23.7354 43.7814 24.4306 43.5424 25.1665C43.3754 25.9457 43.327 26.7457 43.3988 27.5394C43.5093 28.2852 43.4267 29.047 43.1587 29.7517C42.6772 30.345 42.0505 30.8036 41.3395 31.083C40.6228 31.4114 39.9604 31.8471 39.375 32.375C38.8465 32.9601 38.4105 33.6226 38.0822 34.3395C37.8027 35.0505 37.3441 35.6772 36.7509 36.1587C36.046 36.426 35.2844 36.5087 34.5386 36.3988C33.7449 36.3274 32.9449 36.3758 32.1656 36.5424C31.4301 36.7815 30.7352 37.131 30.1046 37.5789C29.496 38.0651 28.7702 38.3828 28 38.5C27.2298 38.3828 26.504 38.0651 25.8954 37.5789C25.2646 37.1309 24.5694 36.7814 23.8335 36.5424C23.3425 36.4216 22.8377 36.3657 22.3322 36.3761C22.0399 36.3761 21.7486 36.388 21.4606 36.3991C20.7147 36.5093 19.9531 36.4266 19.2482 36.159C18.655 35.6776 18.1964 35.0509 17.917 34.3398C17.5886 33.6231 17.153 32.9605 16.625 32.375C16.0399 31.8465 15.3774 31.4105 14.6605 31.0822C13.9495 30.8027 13.3228 30.3441 12.8413 29.7509C12.5734 29.0461 12.4907 28.2844 12.6012 27.5386C12.673 26.7449 12.6246 25.9449 12.4576 25.1656C12.2185 24.4301 11.869 23.7352 11.4211 23.1046C10.9349 22.496 10.6172 21.7702 10.5 21C10.6172 20.2298 10.9349 19.504 11.4211 18.8954C11.8691 18.2646 12.2186 17.5694 12.4576 16.8335C12.6246 16.0543 12.673 15.2543 12.6012 14.4606C12.4907 13.7148 12.5733 12.953 12.8413 12.2483C13.3228 11.655 13.9495 11.1964 14.6605 10.917C15.3772 10.5886 16.0396 10.1529 16.625 9.625C17.1535 9.03986 17.5895 8.3774 17.9178 7.66054C18.1973 6.94946 18.6559 6.32276 19.2491 5.84132C19.9539 5.57354 20.7156 5.49088 21.4614 5.60123C22.2551 5.67255 23.0551 5.62415 23.8344 5.45764C24.5699 5.21845 25.2648 4.86896 25.8954 4.42111C26.504 3.9349 27.2298 3.61725 28 3.5C28.7702 3.61725 29.496 3.9349 30.1046 4.42111C30.7354 4.86914 31.4306 5.21864 32.1665 5.45764C32.9458 5.62415 33.7457 5.67255 34.5394 5.60123C35.2852 5.4907 36.047 5.57337 36.7517 5.84132C37.345 6.32277 37.8036 6.94947 38.083 7.66054C38.4114 8.37717 38.8471 9.03959 39.375 9.625C39.9601 10.1535 40.6226 10.5895 41.3395 10.9178C42.0505 11.1973 42.6772 11.6559 43.1587 12.2491C43.4266 12.9539 43.5093 13.7156 43.3988 14.4614C43.327 15.2551 43.3754 16.0551 43.5424 16.8344C43.7815 17.5699 44.131 18.2648 44.5789 18.8954C45.0651 19.504 45.3828 20.2298 45.5 21C45.3828 21.7702 45.0651 22.496 44.5789 23.1046Z" fill="#E1303C"/>
<path d="M28 7C25.2311 7 22.5243 7.82109 20.222 9.35943C17.9197 10.8978 16.1253 13.0843 15.0657 15.6424C14.0061 18.2006 13.7288 21.0155 14.269 23.7313C14.8092 26.447 16.1426 28.9416 18.1005 30.8995C20.0584 32.8574 22.553 34.1908 25.2687 34.731C27.9845 35.2712 30.7994 34.9939 33.3576 33.9343C35.9157 32.8747 38.1022 31.0803 39.6406 28.778C41.1789 26.4757 42 23.7689 42 21C41.9958 17.2883 40.5194 13.7298 37.8948 11.1052C35.2702 8.48059 31.7117 7.00424 28 7ZM28 33.25C25.5772 33.25 23.2088 32.5316 21.1943 31.1855C19.1798 29.8395 17.6097 27.9263 16.6825 25.6879C15.7553 23.4495 15.5127 20.9864 15.9854 18.6101C16.4581 16.2339 17.6248 14.0511 19.3379 12.3379C21.0511 10.6247 23.2339 9.45805 25.6101 8.98538C27.9864 8.51271 30.4495 8.7553 32.6879 9.68248C34.9263 10.6096 36.8395 12.1798 38.1855 14.1943C39.5316 16.2088 40.25 18.5772 40.25 21C40.2463 24.2478 38.9545 27.3615 36.658 29.658C34.3615 31.9545 31.2478 33.2463 28 33.25Z" fill="#E1303C"/>
<path d="M31.1398 16.6343L28.7848 11.8628C28.7045 11.7262 28.5898 11.6129 28.4522 11.5342C28.3147 11.4555 28.1589 11.4141 28.0004 11.4141C27.8419 11.4141 27.6861 11.4555 27.5485 11.5342C27.4109 11.6129 27.2963 11.7262 27.216 11.8628L24.861 16.6343L19.5948 17.3999C19.4333 17.4234 19.2816 17.4916 19.1568 17.5967C19.032 17.7019 18.9391 17.8399 18.8886 17.9951C18.8381 18.1503 18.8321 18.3165 18.8711 18.475C18.9101 18.6334 18.9927 18.7778 19.1094 18.8919L22.9204 22.6063L22.0206 27.8521C21.9931 28.013 22.0111 28.1784 22.0727 28.3297C22.1343 28.4809 22.2369 28.6118 22.369 28.7077C22.5011 28.8037 22.6574 28.8607 22.8202 28.8724C22.9831 28.8842 23.146 28.8501 23.2904 28.7741L28.0004 26.2978L32.7103 28.774C32.8548 28.85 33.0177 28.8841 33.1805 28.8724C33.3434 28.8606 33.4997 28.8036 33.6318 28.7077C33.7639 28.6117 33.8665 28.4808 33.9281 28.3296C33.9896 28.1784 34.0077 28.0129 33.9801 27.852L33.0804 22.6062L36.8913 18.8918C37.0081 18.7778 37.0907 18.6334 37.1297 18.4749C37.1687 18.3164 37.1626 18.1502 37.1121 17.995C37.0617 17.8398 36.9688 17.7018 36.844 17.5967C36.7192 17.4915 36.5675 17.4233 36.406 17.3998L31.1398 16.6343ZM31.5294 21.675C31.428 21.774 31.3521 21.8962 31.3084 22.031C31.2646 22.1659 31.2543 22.3094 31.2782 22.4491L31.9558 26.4003L28.408 24.5349C28.2823 24.4687 28.1424 24.4341 28.0004 24.4341C27.8584 24.4341 27.7185 24.4687 27.5928 24.5349L24.0454 26.4003L24.723 22.4491C24.747 22.3094 24.7366 22.1659 24.6929 22.031C24.6491 21.8962 24.5732 21.774 24.4718 21.675L21.6006 18.8765L25.5681 18.2997C25.7085 18.2795 25.8419 18.2253 25.9567 18.1419C26.0714 18.0585 26.1642 17.9485 26.2269 17.8212L28.0004 14.2274L29.7743 17.8214C29.837 17.9486 29.9298 18.0587 30.0446 18.1421C30.1594 18.2255 30.2927 18.2796 30.4331 18.2999L34.4006 18.8766L31.5294 21.675Z" fill="#E1303C"/>
</svg>
