<svg width="56" height="56" viewBox="0 0 56 56" fill="none" xmlns="http://www.w3.org/2000/svg">
<path d="M42.9771 18.0141H45.4175C47.0797 18.0141 48.4272 16.6666 48.4272 15.0044V11.8951C48.4272 6.42242 43.9906 1.98584 38.5179 1.98584H35.1953" stroke="#E1303C" stroke-width="1.5" stroke-miterlimit="10" stroke-linecap="round" stroke-linejoin="round"/>
<path d="M25.7695 2.86081C26.8951 1.62509 28.7335 0.820312 30.8102 0.820312C34.2354 0.820312 37.0121 3.00967 37.0121 5.71036C37.0121 5.97494 36.9854 6.23459 36.9341 6.4878" stroke="#E1303C" stroke-width="1.5" stroke-miterlimit="10" stroke-linecap="round" stroke-linejoin="round"/>
<path d="M45.2634 47.4392C45.9004 48.7998 46.2563 50.3182 46.2563 51.9197V53.9614C46.2563 54.6343 45.7109 55.1797 45.038 55.1797H8.79059C8.11772 55.1797 7.57227 54.6343 7.57227 53.9614V51.9197C7.57227 46.0772 12.3085 41.3408 18.1511 41.3408H21.3155" stroke="#E1303C" stroke-width="1.5" stroke-miterlimit="10" stroke-linecap="round" stroke-linejoin="round"/>
<path d="M32.125 41.3408H35.6774C38.5079 41.3408 41.0787 42.4524 42.9772 44.2629" stroke="#E1303C" stroke-width="1.5" stroke-miterlimit="10" stroke-linecap="round" stroke-linejoin="round"/>
<path d="M31.6755 37.729V41.5444C31.6755 42.4873 31.3283 43.3971 30.7004 44.1004L28.4058 46.67C27.6053 47.5665 26.2029 47.5665 25.4025 46.67L23.1079 44.1004C22.4799 43.3971 22.1328 42.4872 22.1328 41.5444V37.2617" stroke="#E1303C" stroke-width="1.5" stroke-miterlimit="10" stroke-linecap="round" stroke-linejoin="round"/>
<path d="M38.7165 55.1797H31.6738V52.8717C31.6738 52.2457 32.1813 51.7383 32.8073 51.7383H37.5829C38.209 51.7383 38.7164 52.2458 38.7164 52.8717V55.1797H38.7165Z" stroke="#E1303C" stroke-width="1.5" stroke-miterlimit="10" stroke-linecap="round" stroke-linejoin="round"/>
<path d="M18.4746 41.3408V55.0181" stroke="#E1303C" stroke-width="1.5" stroke-miterlimit="10" stroke-linecap="round" stroke-linejoin="round"/>
<path d="M35.1953 41.3408V51.2842" stroke="#E1303C" stroke-width="1.5" stroke-miterlimit="10" stroke-linecap="round" stroke-linejoin="round"/>
<path d="M13.7999 9.99902C12.3598 12.2741 11.5273 14.9637 11.5273 17.8454V22.1806" stroke="#E1303C" stroke-width="1.5" stroke-miterlimit="10" stroke-linecap="round" stroke-linejoin="round"/>
<path d="M42.3001 22.0344V17.8458C42.3001 9.66612 35.5933 3.03516 27.3198 3.03516H26.5093C22.5213 3.03516 18.8973 4.57592 16.2129 7.08816" stroke="#E1303C" stroke-width="1.5" stroke-miterlimit="10" stroke-linecap="round" stroke-linejoin="round"/>
<path d="M22.3281 23.6616V24.4567" stroke="#E1303C" stroke-width="1.5" stroke-miterlimit="10" stroke-linecap="round" stroke-linejoin="round"/>
<path d="M31.5 23.6611V24.4562" stroke="#E1303C" stroke-width="1.5" stroke-miterlimit="10" stroke-linecap="round" stroke-linejoin="round"/>
<path d="M20.6543 21.2949C20.6543 21.2949 21.7577 20.4495 23.2606 20.8415" stroke="#E1303C" stroke-width="1.5" stroke-miterlimit="10" stroke-linecap="round" stroke-linejoin="round"/>
<path d="M33.1727 21.2949C33.1727 21.2949 32.0693 20.4495 30.5664 20.8415" stroke="#E1303C" stroke-width="1.5" stroke-miterlimit="10" stroke-linecap="round" stroke-linejoin="round"/>
<path d="M29.2204 31.3047C28.6429 31.8718 27.8232 32.2258 26.9139 32.2258C26.0047 32.2258 25.1849 31.8718 24.6074 31.3047" stroke="#E1303C" stroke-width="1.5" stroke-miterlimit="10" stroke-linecap="round" stroke-linejoin="round"/>
<path d="M28.0589 28.3931C27.7067 28.5397 27.3159 28.6213 26.9045 28.6213C26.5006 28.6213 26.1167 28.5427 25.7695 28.4011" stroke="#E1303C" stroke-width="1.5" stroke-miterlimit="10" stroke-linecap="round" stroke-linejoin="round"/>
<path d="M14.6619 27.417C14.443 27.4649 14.2156 27.4902 13.9822 27.4902C12.2532 27.4902 10.8516 26.1044 10.8516 24.395C10.8516 22.6856 12.2532 21.2998 13.9822 21.2998C14.1983 21.2998 14.4093 21.3215 14.6131 21.3627" stroke="#E1303C" stroke-width="1.5" stroke-miterlimit="10" stroke-linecap="round" stroke-linejoin="round"/>
<path d="M39.2148 27.4273C39.4186 27.4686 39.6296 27.4902 39.8457 27.4902C41.5747 27.4902 42.9764 26.1044 42.9764 24.395C42.9764 22.6856 41.5747 21.2998 39.8457 21.2998C39.6807 21.2998 39.5187 21.3124 39.3605 21.3368" stroke="#E1303C" stroke-width="1.5" stroke-miterlimit="10" stroke-linecap="round" stroke-linejoin="round"/>
<path d="M14.6777 20.7947L18.4998 18.8018C21.0813 17.1368 23.764 14.8555 26.202 11.8589C26.5668 11.4106 27.2572 11.4116 27.6193 11.8621C28.9944 13.5723 32.1758 17.239 35.3282 18.8018L39.1503 20.7947" stroke="#E1303C" stroke-width="1.5" stroke-miterlimit="10" stroke-linecap="round" stroke-linejoin="round"/>
<path d="M39.1504 21.3369V24.4069C39.1504 29.0961 36.9306 33.5149 33.1516 36.3485C29.4636 39.114 24.3645 39.114 20.6765 36.3485C16.8975 33.5149 14.6777 29.096 14.6777 24.4069V21.3369" stroke="#E1303C" stroke-width="1.5" stroke-miterlimit="10" stroke-linecap="round" stroke-linejoin="round"/>
</svg>
