<svg width="58" height="58" viewBox="0 0 58 58" fill="none" xmlns="http://www.w3.org/2000/svg">
<path d="M11.7791 36.9158H7.78763C3.90076 36.9158 0.75 40.07 0.75 43.9609V56.4063C0.75 56.5958 0.903525 56.7495 1.09296 56.7495H36.6282C36.8177 56.7495 36.9713 56.5958 36.9713 56.4063V43.9609C36.9713 40.07 33.8204 36.9158 29.9336 36.9158H25.9421" stroke="#E1303C" stroke-width="1.5" stroke-miterlimit="10" stroke-linecap="round" stroke-linejoin="round"/>
<path d="M9.73583 25.4482H9.43452C7.29608 25.4482 5.5625 23.7129 5.5625 21.5721V21.2323C5.5625 20.1427 6.44482 19.2594 7.53323 19.2594H8.18132" stroke="#E1303C" stroke-width="1.5" stroke-miterlimit="10" stroke-linecap="round" stroke-linejoin="round"/>
<path d="M20.2063 23.0917V25.2695C20.2063 25.9548 19.6514 26.5103 18.9668 26.5103" stroke="#E1303C" stroke-width="1.5" stroke-miterlimit="10" stroke-linecap="round" stroke-linejoin="round"/>
<path d="M28.4309 19.3872L27.9046 26.5418C27.5557 31.2843 21.7153 34.5708 18.8601 34.5708C16.0049 34.5708 10.1646 31.2843 9.81575 26.5418L9.39648 20.843" stroke="#E1303C" stroke-width="1.5" stroke-miterlimit="10" stroke-linecap="round" stroke-linejoin="round"/>
<path d="M27.9844 25.4482H28.2857C30.4241 25.4482 32.1577 23.7129 32.1577 21.5722V21.2323C32.1577 20.1427 31.2754 19.2594 30.187 19.2594H28.6781" stroke="#E1303C" stroke-width="1.5" stroke-miterlimit="10" stroke-linecap="round" stroke-linejoin="round"/>
<path d="M19.1162 7.09125C12.6426 6.9477 7.67315 12.3587 8.1442 18.7606L8.2312 19.9428C8.29063 20.7515 9.25118 21.1521 9.85796 20.6147C11.369 19.2767 12.883 17.3006 13.9535 14.3565C16.7566 18.4833 21.7085 20.5919 26.6225 19.7512L27.9933 19.5167C28.9499 19.353 29.6376 18.5085 29.6105 17.5373C29.4526 11.8719 24.873 7.22511 19.1162 7.09125Z" stroke="#E1303C" stroke-width="1.5" stroke-miterlimit="10" stroke-linecap="round" stroke-linejoin="round"/>
<path d="M13.8881 32.6946V34.7973C13.8881 35.963 12.9478 36.9097 11.7833 36.9165H11.7812L11.7816 36.9175L17.5018 39.7233C18.3603 40.1443 19.3652 40.1443 20.2238 39.7233L25.9439 36.9175L25.9443 36.9165H25.9356C24.7749 36.9099 23.8374 35.966 23.8374 34.8041V32.6946" stroke="#E1303C" stroke-width="1.5" stroke-miterlimit="10" stroke-linecap="round" stroke-linejoin="round"/>
<path d="M6.94141 48.0557V56.75" stroke="#E1303C" stroke-width="1.5" stroke-miterlimit="10" stroke-linecap="round" stroke-linejoin="round"/>
<path d="M30.7773 48.0557V56.75" stroke="#E1303C" stroke-width="1.5" stroke-miterlimit="10" stroke-linecap="round" stroke-linejoin="round"/>
<path d="M53.9237 16.3545H56.0895C56.4544 16.3545 56.7502 16.0584 56.7502 15.6931V1.41154C56.7502 1.04625 56.4544 0.750137 56.0895 0.750137H35.2741C34.9091 0.750137 34.6133 1.04625 34.6133 1.41154V15.6931C34.6133 16.0584 34.9091 16.3545 35.2741 16.3545H37.792C37.9198 16.3545 38.0132 16.4756 37.9807 16.5994L37.0689 20.079C37.0213 20.2605 37.2319 20.3982 37.3788 20.2817L42.2777 16.3967C42.3122 16.3694 42.3549 16.3545 42.3988 16.3545H49.9843" stroke="#E1303C" stroke-width="1.5" stroke-miterlimit="10" stroke-linecap="round" stroke-linejoin="round"/>
<path d="M38.3691 4.78076H45.6833" stroke="#E1303C" stroke-width="1.5" stroke-miterlimit="10" stroke-linecap="round" stroke-linejoin="round"/>
<path d="M38.582 8.55273H52.9969" stroke="#E1303C" stroke-width="1.5" stroke-miterlimit="10" stroke-linecap="round" stroke-linejoin="round"/>
<path d="M38.3691 12.3237H49.9941" stroke="#E1303C" stroke-width="1.5" stroke-miterlimit="10" stroke-linecap="round" stroke-linejoin="round"/>
<path d="M16.0935 48.9984L18.8603 56.75H14.6263L10.223 49.115C9.85219 48.4722 9.95901 47.6601 10.4834 47.1353L11.6481 45.9692C11.6721 45.9452 11.6721 45.9064 11.6481 45.8825L8.34001 42.5708C7.73041 41.9605 7.73041 40.9711 8.34001 40.3609L11.7811 36.9163L14.7732 45.2992" stroke="#E1303C" stroke-width="1.5" stroke-miterlimit="10" stroke-linecap="round" stroke-linejoin="round"/>
<path d="M23.0914 56.75L27.4948 49.115C27.8656 48.4722 27.7587 47.6601 27.2345 47.1353L26.0695 45.9692C26.0457 45.9452 26.0457 45.9064 26.0695 45.8825L29.3777 42.5708C29.9873 41.9605 29.9873 40.9711 29.3777 40.3609L25.9367 36.9163L18.8574 56.75H23.0914Z" stroke="#E1303C" stroke-width="1.5" stroke-miterlimit="10" stroke-linecap="round" stroke-linejoin="round"/>
<path d="M9.73438 36.916V25.4482" stroke="#E1303C" stroke-width="1.5" stroke-miterlimit="10" stroke-linecap="round" stroke-linejoin="round"/>
<path d="M27.9844 31.8638V25.4484" stroke="#E1303C" stroke-width="1.5" stroke-miterlimit="10" stroke-linecap="round" stroke-linejoin="round"/>
<path d="M27.9844 36.916V35.8072" stroke="#E1303C" stroke-width="1.5" stroke-miterlimit="10" stroke-linecap="round" stroke-linejoin="round"/>
<path d="M14.0645 43.3179L17.6059 39.7726" stroke="#E1303C" stroke-width="1.5" stroke-miterlimit="10" stroke-linecap="round" stroke-linejoin="round"/>
<path d="M23.6547 43.3179L20.1133 39.7726" stroke="#E1303C" stroke-width="1.5" stroke-miterlimit="10" stroke-linecap="round" stroke-linejoin="round"/>
</svg>
