<svg width="56" height="56" viewBox="0 0 56 56" fill="none" xmlns="http://www.w3.org/2000/svg">
<g clip-path="url(#clip0_718_1172)">
<path d="M48.903 10.8032C44.3279 6.22801 38.2215 3.70801 31.7071 3.70801C25.1927 3.70801 19.0863 6.22801 14.5112 10.8032C10.0957 15.2186 7.59211 21.0724 7.42477 27.3385C6.12539 27.9619 4.90914 28.8107 3.83289 29.8858C-1.28805 35.0068 -1.28805 43.3389 3.83289 48.4599C6.30367 50.9318 9.60242 52.2924 13.1199 52.2924C15.956 52.2924 18.6488 51.4075 20.8812 49.7691C24.2335 51.425 27.9829 52.288 31.7443 52.2869C32.8982 52.2869 34.0521 52.206 35.1962 52.0419C40.4352 51.2916 45.1755 48.9236 48.902 45.195C53.4771 40.6199 55.9971 34.5124 55.9971 27.9991C55.9971 21.4858 53.4782 15.3783 48.903 10.8032ZM5.06992 47.2229C0.631485 42.7833 0.631485 35.5613 5.06992 31.1218C6.1068 30.0849 7.2957 29.2897 8.56555 28.7374C8.6093 28.7232 8.65086 28.7057 8.69133 28.6849C10.1034 28.091 11.6116 27.7924 13.1199 27.7924C16.0359 27.7924 18.9507 28.9025 21.1699 31.1218C25.6062 35.5613 25.6062 42.7844 21.1699 47.2229C20.8735 47.5193 20.5618 47.7971 20.2391 48.0563C20.2337 48.0607 20.2282 48.065 20.2227 48.0694C18.219 49.6718 15.7405 50.5424 13.1199 50.5424C10.0695 50.5435 7.21039 49.3644 5.06992 47.2229ZM47.666 43.9591C41.0609 50.5664 30.8157 52.3613 22.3391 48.5266C22.3621 48.5047 22.3851 48.4829 22.407 48.4599C27.5246 43.3389 27.5246 35.0068 22.407 29.8869C18.8402 26.3202 13.7171 25.2385 9.20539 26.6396C9.53133 21.1052 11.826 15.9613 15.7471 12.0402C24.5474 3.23988 38.8657 3.23988 47.666 12.0402C56.4663 20.8394 56.4663 35.1588 47.666 43.9591ZM47.2088 27.9991C47.2088 28.4825 46.8173 28.873 46.3349 28.873H31.7071C31.2237 28.873 30.8332 28.4814 30.8332 27.9991V13.3746C30.8332 12.8911 31.2248 12.5007 31.7071 12.5007C32.1895 12.5007 32.581 12.8922 32.581 13.3746V27.1252H46.3349C46.8173 27.1252 47.2088 27.5157 47.2088 27.9991ZM18.4662 36.8771L12.6376 42.7057C12.467 42.8763 12.2427 42.9616 12.0196 42.9616C11.7965 42.9616 11.5723 42.8763 11.4016 42.7057L7.77148 39.0777C7.43023 38.7364 7.42914 38.183 7.77148 37.8418C8.11273 37.5005 8.66617 37.4994 9.00742 37.8418L12.0196 40.8518L17.2302 35.6411C17.5715 35.2999 18.1249 35.2999 18.4662 35.6411C18.8074 35.9813 18.8074 36.5347 18.4662 36.8771Z" fill="#E1303C"/>
</g>
<defs>
<clipPath id="clip0_718_1172">
<rect width="56" height="56" fill="white"/>
</clipPath>
</defs>
</svg>
