<svg width="53" height="51" viewBox="0 0 53 51" fill="none" xmlns="http://www.w3.org/2000/svg">
<path d="M13.1445 6.02368C14.5963 4.41811 17.0439 4.32268 18.6113 5.8147C19.7047 6.85578 20.0773 8.39216 19.7109 9.77173C19.999 9.77638 20.3309 9.82313 20.7041 9.93872C21.879 10.3028 23.4299 11.3291 25.374 13.7493C25.7666 13.6308 26.1865 13.6288 26.584 13.7473L33.042 15.0569L35.1484 9.99829C35.3078 9.61622 35.7477 9.4349 36.1299 9.59399C36.5119 9.75326 36.692 10.1923 36.5332 10.5745L34.1904 16.2024C34.1702 16.251 34.1448 16.2964 34.1162 16.3381C33.9858 16.5285 33.7721 16.6486 33.5381 16.6614C33.5254 16.6621 33.5128 16.6643 33.5 16.6643C33.4498 16.6645 33.3988 16.66 33.3477 16.6497L26.2715 15.2141C26.2402 15.2078 26.209 15.199 26.1787 15.1887C26.0275 15.1373 25.8628 15.1477 25.7178 15.219C25.5722 15.2908 25.4537 15.4212 25.3936 15.5872C25.3334 15.7536 25.3382 15.9387 25.4072 16.1008C25.4743 16.258 25.595 16.3774 25.7383 16.4417L33.1025 18.9075L33.168 18.9329C33.4155 19.0427 33.6853 19.0856 33.9521 19.0588C33.9541 19.0586 33.956 19.058 33.958 19.0579C34.3979 19.0047 34.8267 18.7643 35.0967 18.386L37.0996 14.3606C37.284 13.99 37.7337 13.8386 38.1045 14.0227C38.4753 14.2071 38.6267 14.6577 38.4424 15.0286L36.4121 19.1135C36.3971 19.1437 36.3793 19.1735 36.3604 19.2014C36.2698 19.3348 36.1682 19.4576 36.0605 19.5725L36.4521 24.1917C36.4572 24.2519 36.4521 24.3111 36.4434 24.3684C36.4416 24.38 36.4408 24.392 36.4385 24.4036L34.3145 34.927L33.9004 47.0247V47.2122C33.9356 48.1078 34.5009 48.6543 35.1992 48.6545C35.5529 48.6545 35.7956 48.5285 35.9746 48.3303C36.1662 48.118 36.3199 47.7796 36.3828 47.3215L36.9443 38.9309C36.9721 38.5179 37.3292 38.2053 37.7422 38.2327C38.1554 38.2604 38.4681 38.6182 38.4404 39.0315L37.8779 47.4524C37.8769 47.468 37.8751 47.4838 37.873 47.4993C37.7838 48.1787 37.5389 48.8367 37.0879 49.3362C36.6217 49.8524 35.973 50.1545 35.1992 50.1545C33.3846 50.1543 32.3371 48.5894 32.4014 46.969L32.8184 34.8157L32.833 34.6936L34.9473 24.2063L34.6289 20.4465C34.4591 20.4955 34.2866 20.5315 34.1133 20.551C34.1107 20.5513 34.108 20.5508 34.1055 20.551C34.1045 20.5511 34.1035 20.5519 34.1025 20.552C33.5914 20.6034 33.0772 20.5226 32.6045 20.3215L28.8145 19.053C28.9295 19.2802 29.0433 19.5107 29.1494 19.7424C29.935 21.4586 30.74 23.5812 30.4424 25.6848L30.4414 25.6936L28.8984 35.7668L29.9854 40.7942L30.3447 42.4602L31.1396 46.1428C31.3653 47.0039 31.269 47.9021 30.8457 48.6125C30.4057 49.3506 29.6312 49.8459 28.6484 49.8459H28.5977C27.979 49.846 27.3782 49.6439 26.8828 49.2717C26.3878 48.8998 26.024 48.3777 25.8408 47.7844V47.7834L22.4033 37.178C22.2462 36.6937 22.1865 36.182 22.2275 35.6741L22.6426 30.5579C22.6762 30.1452 23.0376 29.8371 23.4502 29.8704C23.8629 29.9039 24.171 30.2662 24.1377 30.679L23.7227 35.7952C23.6976 36.1063 23.7342 36.4195 23.8301 36.7151L27.2715 47.3323L27.2744 47.342C27.3658 47.638 27.5457 47.8934 27.7842 48.0725C28.0223 48.2513 28.3073 48.346 28.5977 48.3459H28.6484C29.0802 48.3459 29.3755 48.1487 29.5566 47.845C29.7498 47.5208 29.8284 47.0381 29.6855 46.5081C29.6823 46.496 29.6794 46.4832 29.6768 46.4709L28.8789 42.7766L28.5186 41.1106L27.4033 35.9475C27.3841 35.8582 27.3817 35.7654 27.3955 35.675L28.958 25.4661C29.1574 24.0377 28.7065 22.5073 28.0693 21.0081L27.7861 20.3665C27.4632 19.6611 27.0702 18.9487 26.7197 18.3518L25.2207 17.8508C25.2028 17.8448 25.1853 17.8376 25.168 17.8303C24.6536 17.6135 24.2471 17.2028 24.0283 16.6907C23.8099 16.179 23.7934 15.6006 23.9824 15.0774C24.0351 14.9316 24.1035 14.7931 24.1846 14.6633C22.35 12.3858 21.0365 11.6128 20.2607 11.3723C19.8544 11.2464 19.5875 11.2638 19.4512 11.2893C19.3816 11.3024 19.3384 11.319 19.3213 11.3264C19.3185 11.3276 19.3159 11.3287 19.3145 11.3293C19.3167 11.3281 19.3209 11.3258 19.3262 11.3225C19.3289 11.3208 19.3325 11.3179 19.3359 11.3157C19.3374 11.3147 19.3392 11.3138 19.3408 11.3127L19.3438 11.3108L19.3457 11.3088C19.2604 11.3669 19.1639 11.4059 19.0625 11.425L19.0635 11.426H19.0654L19.0684 11.425C19.0697 11.4248 19.0711 11.4243 19.0723 11.4241C19.0746 11.4236 19.0766 11.4234 19.0781 11.4231C19.08 11.4227 19.0816 11.4222 19.082 11.4221C19.0806 11.4225 19.0714 11.4248 19.0557 11.4299C19.0238 11.4403 18.9638 11.4624 18.8828 11.5022C18.7649 11.5602 18.598 11.6579 18.4023 11.8186C18.3927 11.8265 18.3837 11.8352 18.374 11.843C18.311 11.896 18.2448 11.9551 18.1768 12.0217C18.0761 12.1202 17.9539 12.1816 17.8262 12.2122C16.4084 13.0017 14.6002 12.8235 13.3506 11.634C11.7834 10.1418 11.6931 7.62961 13.1445 6.02368ZM34.5527 1.64087C35.8006 -0.129185 38.2184 -0.534135 39.9551 0.755127C41.6916 2.04443 42.0737 4.52707 40.8262 6.29712C40.7168 6.45222 40.5968 6.59583 40.4707 6.72974C40.6201 6.81226 40.7654 6.90396 40.9023 7.00903L41.0322 7.11353L41.0332 7.1145C41.8761 7.8307 42.3929 8.78704 42.7305 9.72192C42.9837 10.4232 43.1462 11.1424 43.2666 11.7844L43.375 12.3967L43.3809 12.4436L43.5635 14.1858V14.1936L44.5029 24.1458L46.0742 34.8088L51.8613 46.1077L51.8887 46.1682C52.1547 46.8244 52.1734 47.5573 51.9424 48.2268C51.7111 48.8967 51.244 49.4601 50.626 49.803C49.9773 50.1627 49.2153 50.2507 48.5029 50.0452C47.798 49.8416 47.2023 49.3683 46.835 48.7317L39.7168 37.0325C39.6751 36.9639 39.644 36.889 39.626 36.8108L38.4805 31.8274C38.4715 31.7967 38.4641 31.7651 38.459 31.7327L37.9111 28.2532C37.847 27.8442 38.1271 27.4602 38.5361 27.3958C38.9451 27.3317 39.3291 27.6118 39.3936 28.0208L39.9365 31.469L41.0596 36.3557L48.1172 47.9534L48.1289 47.9729C48.3058 48.285 48.5909 48.509 48.9189 48.6038C49.2463 48.6981 49.597 48.6586 49.8984 48.4915C50.1867 48.3315 50.4126 48.0642 50.5254 47.7375C50.6356 47.4181 50.6281 47.0682 50.5068 46.7542L44.6836 35.3831C44.6463 35.3102 44.6213 35.2316 44.6094 35.1506L43.0186 24.3645C43.0172 24.3554 43.0166 24.3462 43.0156 24.3372C43.0152 24.3332 43.014 24.3294 43.0137 24.3254L42.0703 14.3342V14.3333L41.8896 12.6174C41.7617 11.8583 41.6036 11.0191 41.3193 10.2317C41.0316 9.43483 40.6335 8.74345 40.0625 8.25806C39.6774 7.9322 39.1886 7.77306 38.6973 7.80786C38.6892 7.80843 38.6809 7.80755 38.6729 7.80786C37.5942 8.09653 36.4011 7.9084 35.4238 7.18286C33.6873 5.89363 33.3054 3.41092 34.5527 1.64087ZM20.2305 25.7307C20.4496 25.3793 20.9123 25.2714 21.2637 25.4905C21.615 25.7097 21.722 26.1723 21.5029 26.5237L16.5771 34.4202C16.4045 34.7302 16.3122 35.083 16.3105 35.4426L16.2617 46.9944V47.0081C16.2618 47.5112 16.38 47.8873 16.5459 48.1165C16.6902 48.3157 16.8975 48.4485 17.25 48.4485C17.9276 48.4484 18.4965 47.9091 18.5381 47.0754L18.5391 47.0667L19.168 36.7883C19.1933 36.375 19.5486 36.0601 19.9619 36.0852C20.3754 36.1105 20.6903 36.4667 20.665 36.8801L20.0361 47.1575L20.0352 47.1565C19.9574 48.6552 18.8494 49.9484 17.25 49.9485C16.4217 49.9484 15.7596 49.5896 15.3301 48.9963C14.9224 48.4331 14.7618 47.7143 14.7617 47.0081V46.9875L14.8105 35.4358V35.4348C14.8135 34.8171 14.9745 34.2099 15.2773 33.6731L15.2939 33.6448L20.2305 25.7307ZM16.3223 15.9768C16.7361 15.9904 17.0613 16.3373 17.0479 16.7512L16.8975 21.3186C16.8974 21.3209 16.8966 21.3232 16.8965 21.3254C16.8868 21.5602 16.7682 21.7752 16.5752 21.9084C16.5663 21.9146 16.557 21.9202 16.5479 21.926C16.4889 21.963 16.4259 21.9959 16.3555 22.0159L10.4854 23.6741C10.4253 23.691 10.3646 23.6966 10.3047 23.6985L10.1045 23.7551C9.94475 23.8637 9.83016 24.0662 9.83008 24.2991L9.84082 24.4231C9.84813 24.4637 9.85969 24.5037 9.87402 24.5422C9.97213 24.8048 10.2531 25.0207 10.627 25.0872L17.1738 23.6233L17.7178 23.4963C18.1285 23.2555 18.3225 22.9138 18.3174 22.6145C18.3168 22.5802 18.3191 22.5451 18.3232 22.511L18.9717 17.1526V17.1506L18.9746 17.1252C19.0257 16.7144 19.4006 16.423 19.8115 16.4739C20.2016 16.5222 20.4835 16.8615 20.4678 17.2473C20.4676 17.2743 20.4671 17.3019 20.4639 17.3293L19.8438 22.6624C19.8294 23.6659 19.1622 24.4516 18.3799 24.8645C18.3212 24.8955 18.2581 24.9184 18.1934 24.9329L17.5088 25.0862C17.5001 25.0881 17.4911 25.0885 17.4824 25.0901L13.0957 26.0725L13.498 30.2268C13.5175 30.4294 13.4535 30.6317 13.3213 30.7864C13.189 30.9411 12.9991 31.0349 12.7959 31.0471L12.5195 31.0627L13.7422 49.0432C13.7701 49.4563 13.4571 49.8139 13.0439 49.842C12.6309 49.8699 12.2732 49.5579 12.2451 49.1448L11.4512 37.4514H2.31836L1.49805 49.1467C1.46894 49.5598 1.11034 49.871 0.697266 49.842C0.284205 49.8129 -0.0270158 49.4544 0.00195312 49.0413L0.867188 36.6995C0.867288 36.6677 0.869118 36.6364 0.873047 36.6057L1.26172 31.0618L0.986328 31.0452C0.780492 31.0323 0.589051 30.935 0.457031 30.7766C0.324977 30.6179 0.2642 30.4113 0.289062 30.2063L0.828125 25.7708C0.975722 23.9436 2.58417 22.5843 4.43359 22.5842H9.16602C9.25787 22.5139 9.35582 22.4498 9.46094 22.3948C9.50755 22.3704 9.55675 22.3513 9.60742 22.3372L10.2363 22.1614C10.264 22.1523 10.2913 22.1419 10.3193 22.134L10.3223 22.1331L14.585 20.9504L15.416 20.719L15.5488 16.7024C15.5624 16.2885 15.9084 15.9634 16.3223 15.9768ZM4.43359 24.0842C3.28337 24.0843 2.38944 24.9264 2.32129 25.9133C2.32039 25.9263 2.31895 25.9395 2.31738 25.9524L1.87305 29.5969L3.1416 29.676C3.55484 29.7019 3.86944 30.0586 3.84375 30.4719C3.81775 30.885 3.46102 31.1987 3.04785 31.1731L2.75879 31.1545L2.42285 35.9514H11.3486L11.0225 31.1536L10.7344 31.1711C10.3209 31.196 9.96527 30.8805 9.94043 30.467C9.91584 30.0538 10.2312 29.6989 10.6445 29.6741L11.667 29.6116H11.6699L11.6729 29.6106L11.9297 29.5959L11.6211 26.4026L10.8193 26.5823C10.7416 26.5997 10.6613 26.6047 10.582 26.5969C9.75724 26.5158 8.82927 26.0324 8.46875 25.0667H8.46777C8.39931 24.8828 8.35631 24.6902 8.33887 24.4954L8.33008 24.2991C8.33009 24.2272 8.33476 24.1554 8.3418 24.0842H4.43359ZM17.6055 6.927C16.6401 6.00809 15.1295 6.0648 14.2314 7.05786C13.3335 8.05124 13.3912 9.60155 14.3564 10.5208C15.3219 11.4399 16.8334 11.3833 17.7314 10.3899C18.6292 9.39645 18.5708 7.84608 17.6055 6.927ZM39.0908 1.98169C38.0285 1.19301 36.535 1.43225 35.7578 2.53442C34.9809 3.63669 35.226 5.16752 36.2881 5.9563C37.3503 6.74485 38.8439 6.5055 39.6211 5.40356C40.3982 4.30126 40.153 2.77048 39.0908 1.98169Z" fill="#E1303C"/>
</svg>
