<svg width="53" height="52" viewBox="0 0 53 52" fill="none" xmlns="http://www.w3.org/2000/svg">
<path d="M41.1184 38.0023L42.9286 29.3212C43.33 27.3973 42.2188 25.5041 40.343 24.9156L30.5331 21.84L32.0217 14.7755H46.5588C48.16 14.7755 49.4637 13.4728 49.4637 11.8705C49.4637 10.2681 48.1611 8.96547 46.5588 8.96547H29.4394C30.6152 8.04672 31.3731 6.61828 31.3731 5.01375C31.3731 2.24984 29.1244 0 26.3594 0C23.5955 0 21.3467 2.24875 21.3467 5.01375C21.3467 6.61719 22.1047 8.04672 23.2805 8.96547H6.15891C4.55766 8.96547 3.25391 10.2681 3.25391 11.8705C3.25391 13.4717 4.55656 14.7755 6.15891 14.7755H19.8483L19.122 22.1091L11.5259 38.0155C7.06672 38.8073 0 40.6 0 44.0048C0 48.6642 13.5811 51.1777 26.3594 51.1777C39.1377 51.1777 52.7188 48.6631 52.7188 44.0048C52.7188 40.6109 45.7428 38.8183 41.1184 38.0023ZM22.6592 5.01594C22.6592 2.975 24.3195 1.31469 26.3594 1.31469C28.4003 1.31469 30.0606 2.975 30.0606 5.01594C30.0606 7.05688 28.4003 8.71719 26.3594 8.71719C24.3184 8.71609 22.6592 7.05578 22.6592 5.01594ZM41.6445 29.0544L39.2361 40.6011C39.0786 41.3547 38.4311 41.8819 37.6611 41.8819H37.5834C37.0759 41.8819 36.6559 41.6828 36.3355 41.2891C36.015 40.8953 35.9045 40.4447 36.0073 39.947L38.0264 30.1558C38.0975 29.8123 37.8864 29.4744 37.5473 29.388L36.0423 29.0019L38.3862 25.6791L39.9525 26.1702C41.1797 26.5541 41.907 27.7944 41.6445 29.0544ZM11.2809 41.5756L16.7792 30.0639L20.5494 30.6119L14.2494 42.9997C13.965 43.5586 13.4422 43.8791 12.8144 43.8791H12.7334C12.1614 43.8791 11.678 43.6122 11.3717 43.1277C11.0655 42.6431 11.0337 42.0919 11.2809 41.5756ZM22.0467 30.5616L26.5311 27.9125L36.6144 30.5025L35.2275 37.2291C32.3903 36.9666 29.4109 36.832 26.3594 36.832C23.7453 36.832 21.1772 36.9305 18.7086 37.1241L22.0467 30.5616ZM6.15891 13.4641C5.28062 13.4641 4.56641 12.7498 4.56641 11.8716C4.56641 10.9933 5.28062 10.2791 6.15891 10.2791H46.5588C47.437 10.2791 48.1512 10.9933 48.1512 11.8716C48.1512 12.7498 47.437 13.4641 46.5588 13.4641H31.4902C31.1795 13.4641 30.9116 13.6817 30.8481 13.9847L29.237 21.6333H20.4892L21.2264 14.1848C21.245 14 21.1838 13.8173 21.0602 13.6795C20.9355 13.5417 20.7594 13.4641 20.5734 13.4641H6.15891ZM20.1786 22.9458H29.6691L37.0705 25.2656L34.6828 28.6508L26.5956 26.5727C26.4272 26.53 26.2489 26.5541 26.0991 26.6438L21.4156 29.4098L17.3731 28.8225L20.1786 22.9458ZM44.3734 47.9773C39.5697 49.1958 33.1723 49.8663 26.3594 49.8663C19.5464 49.8663 13.1491 49.1958 8.34531 47.9773C3.15984 46.6627 1.3125 45.0636 1.3125 44.0048C1.3125 42.642 4.26781 40.7619 10.8259 39.4811L10.0964 41.0091C9.65453 41.9333 9.71469 42.9603 10.2616 43.8266C10.8084 44.6928 11.7086 45.1905 12.7334 45.1905H12.8144C13.9366 45.1905 14.91 44.5933 15.4186 43.5936L18.0086 38.5C20.6872 38.2648 23.4937 38.1445 26.3594 38.1445C29.318 38.1445 32.2066 38.2725 34.9606 38.523L34.7222 39.6812C34.5384 40.5705 34.7452 41.4127 35.3183 42.117C35.8914 42.8214 36.6756 43.1933 37.5834 43.1933H37.6611C39.06 43.1933 40.2358 42.2373 40.5213 40.868L40.8505 39.2886C48.1359 40.5661 51.4062 42.5611 51.4062 44.0048C51.4062 45.0636 49.5589 46.6627 44.3734 47.9773Z" fill="#E1303C"/>
</svg>
