<svg width="56" height="56" viewBox="0 0 56 56" fill="none" xmlns="http://www.w3.org/2000/svg">
<path d="M23.0856 4C23.0856 4 24.0448 8.31632 21.404 10.2315C18.4327 12.3866 12.7672 9.26 9.96068 16.0611C9.96068 16.0611 8.89108 18.0474 8.87268 23.6267C8.86302 26.3646 8.56809 29.094 7.99268 31.7707C6.68068 37.881 4.52996 48.1536 4.45508 50.1746" stroke="#E1303C" stroke-width="1.5" stroke-linecap="round" stroke-linejoin="round"/>
<path d="M8.52344 51.0285C8.52344 51.0285 12.9769 37.5936 14.245 32.6765C15.6862 27.088 15.7566 26.1987 15.7566 26.1987C15.7566 26.1987 17.8078 30.8408 17.5918 38.1818C17.3758 45.5227 16.2958 44.5512 16.0804 52" stroke="#E1303C" stroke-width="1.5" stroke-linecap="round" stroke-linejoin="round"/>
<path d="M32.9133 4C32.9133 4 31.8581 8.18832 34.4989 10.1035C37.4702 12.2586 43.2313 9.9 46.0381 16.7011C46.0381 16.7011 47.1077 18.6874 47.1261 24.2667C47.1357 27.0046 47.4307 29.734 48.0061 32.4107C49.3181 38.521 51.4688 48.7936 51.5437 50.8146" stroke="#E1303C" stroke-width="1.5" stroke-linecap="round" stroke-linejoin="round"/>
<path d="M47.4764 51.9885C47.4764 51.9885 43.0229 38.5536 41.7548 33.6365C40.3136 28.0485 40.2434 26.1992 40.2434 26.1992C40.2434 26.1992 38.4103 31.7981 38.4082 39.1423C38.4066 44.5925 39.7042 44.5517 39.9196 52.0005" stroke="#E1303C" stroke-width="1.5" stroke-linecap="round" stroke-linejoin="round"/>
<path d="M27.9414 6.38403V49.808" stroke="#E1303C" stroke-width="1.5" stroke-linecap="round" stroke-linejoin="round"/>
<path d="M27.9891 43.536C30.8609 43.536 33.1891 41.2079 33.1891 38.336C33.1891 35.4641 30.8609 33.136 27.9891 33.136C25.1172 33.136 22.7891 35.4641 22.7891 38.336C22.7891 41.2079 25.1172 43.536 27.9891 43.536Z" fill="white" stroke="#E1303C" stroke-width="1.5" stroke-linecap="round" stroke-linejoin="round"/>
<path d="M27.9904 41.3439C29.6517 41.3439 30.9984 39.9972 30.9984 38.3359C30.9984 36.6746 29.6517 35.3279 27.9904 35.3279C26.3291 35.3279 24.9824 36.6746 24.9824 38.3359C24.9824 39.9972 26.3291 41.3439 27.9904 41.3439Z" fill="#E1303C"/>
</svg>
