<svg width="40" height="46" viewBox="0 0 40 46" fill="none" xmlns="http://www.w3.org/2000/svg">
<path d="M39.0381 39.9096L36.3659 33.9229L35.8908 25.5771C35.903 24.5857 35.8076 24.6164 32.256 12.6175C31.8404 11.2122 30.8551 10.1167 29.6266 9.49725C30.8411 8.51725 31.6208 7.01925 31.6208 5.341C31.6208 2.39575 29.225 0 26.2798 0C23.3345 0 20.9388 2.39575 20.9388 5.341C20.9388 7.46637 22.19 9.30037 23.9916 10.1596C23.7904 10.3311 23.6005 10.5166 23.4264 10.7188L18.7976 16.0895L13.1399 19.5422C12.2727 20.0707 11.8204 21.0473 11.9096 22.0176C11.4966 21.9529 11.0775 21.9091 10.6461 21.9091C6.18275 21.9091 2.55237 25.5395 2.55237 30.0029V38.9174C1.08762 39.3068 0 40.6315 0 42.217C0 44.107 1.53737 45.6444 3.42737 45.6444C5.31737 45.6444 6.85475 44.107 6.85475 42.217C6.85475 40.6315 5.76712 39.3068 4.30237 38.9174V31.8351C8.51462 30.2085 12.7776 30.2085 16.9899 31.8351V38.8719C15.4499 39.2079 14.2922 40.5781 14.2922 42.217C14.2922 44.107 15.8296 45.6444 17.7188 45.6444C19.6087 45.6444 21.1461 44.107 21.1461 42.217C21.1461 40.6849 20.1294 39.4004 18.7399 38.9629V31.2226V30.0029C18.7399 27.5888 17.6724 25.4249 15.9906 23.94L22.2784 20.692C22.365 20.6474 22.4429 20.5888 22.5103 20.5188L23.6425 19.3323L25.8344 26.1179L22.3729 29.7903C22.2197 29.953 22.1349 30.1674 22.1349 30.3905V42.2791C22.1349 43.9661 23.5069 45.339 25.1947 45.339C26.8826 45.339 28.2546 43.9661 28.2546 42.2791V34.1451L30.1936 32.4538L30.8271 36.8524C30.8394 36.9303 30.8604 37.0064 30.8919 37.079L33.2552 42.4725C33.9456 44.044 35.791 44.7449 37.3485 44.0177C39.1851 43.1707 39.676 41.3394 39.0381 39.9096ZM5.10475 42.2179C5.10475 43.1427 4.35225 43.8952 3.42737 43.8952C2.5025 43.8952 1.75 43.1427 1.75 42.2179C1.75 41.293 2.5025 40.5405 3.42737 40.5405C4.35225 40.5405 5.10475 41.293 5.10475 42.2179ZM19.3961 42.2179C19.3961 43.1427 18.6436 43.8952 17.7188 43.8952C16.7939 43.8952 16.0422 43.1427 16.0422 42.2179C16.0422 41.293 16.7939 40.5405 17.7188 40.5405C18.6436 40.5405 19.3961 41.293 19.3961 42.2179ZM22.6888 5.34188C22.6888 3.36175 24.2996 1.75088 26.2798 1.75088C28.2599 1.75088 29.8708 3.36175 29.8708 5.34188C29.8708 7.322 28.2599 8.93287 26.2798 8.93287C24.2996 8.93287 22.6888 7.322 22.6888 5.34188ZM16.9881 29.9731C12.7733 28.4944 8.51813 28.4944 4.30413 29.9731C4.32075 26.4898 7.15837 23.66 10.6461 23.66C14.1339 23.66 16.9715 26.4898 16.9881 29.9731ZM26.8039 33.0881C26.6131 33.2535 26.5037 33.4941 26.5037 33.747V42.2791C26.5037 43.0019 25.9157 43.589 25.1939 43.589C24.472 43.589 23.884 43.0019 23.884 42.2791V30.7379L27.4628 26.9421C27.6815 26.7094 27.7568 26.3769 27.6588 26.0724L25.0163 17.8929L27.8442 14.9284C28.1776 14.5784 28.1645 14.0245 27.8154 13.6911C27.4671 13.3586 26.9115 13.3717 26.5781 13.72L21.3456 19.2054L14.8951 22.5374C14.6808 22.6476 14.4392 22.6651 14.2126 22.5837C13.986 22.5033 13.8075 22.3379 13.7113 22.1174C13.5398 21.7245 13.6859 21.2599 14.0516 21.0368L19.8275 17.5131C19.9054 17.4659 19.9754 17.4064 20.0349 17.3373L24.7537 11.8624C25.1965 11.3479 25.7775 10.9812 26.4329 10.8036C28.1995 10.3197 30.0606 11.3593 30.5795 13.1154L34.0428 24.8133C34.1294 25.1055 34.1232 25.2674 34.1416 25.5964C34.1232 26.2946 33.8205 26.9701 33.278 27.4435L26.8039 33.0881ZM36.6117 42.4314C35.9336 42.7446 35.1496 42.434 34.8582 41.7699L32.543 36.4858L31.7651 31.0835L34.3262 28.8505L34.629 34.1828C34.6351 34.2886 34.6596 34.3927 34.7034 34.4899L37.4412 40.6236C37.7283 41.2685 37.5077 42.0158 36.6117 42.4314Z" fill="#E1303C"/>
</svg>
