<svg width="51" height="51" viewBox="0 0 51 51" fill="none" xmlns="http://www.w3.org/2000/svg">
<path d="M46.6866 27.4168C46.2199 27.4168 45.9866 27.1834 45.7533 26.9501L44.8199 25.7834C44.3533 25.0834 44.1199 24.1501 44.3533 23.2168C44.5866 22.2834 45.0533 21.5834 45.7533 20.8834C47.3866 19.7168 49.4866 20.1834 50.6533 21.8168C50.8866 22.2834 50.8866 22.9834 50.4199 23.2168C49.9533 23.4501 49.2533 23.4501 49.0199 22.9834C48.5533 22.2834 47.6199 22.2834 47.1533 22.7501C46.9199 22.9834 46.6866 23.2168 46.6866 23.6834C46.6866 24.1501 46.6866 24.3834 46.9199 24.6168L47.8533 25.7834C48.0866 26.2501 48.0866 26.9501 47.6199 27.1834C47.1533 27.4168 46.9199 27.4168 46.6866 27.4168Z" fill="#E1303C"/>
<path d="M41.3214 28.8168C40.8547 28.8168 40.6214 28.5835 40.3881 28.3502L39.4547 27.1835C38.288 25.5502 38.7547 23.2168 40.3881 22.0502C42.0214 20.8835 44.3547 21.3502 45.5214 22.9835L46.9214 25.3168C47.1547 25.7835 47.1547 26.4835 46.688 26.7168C46.2214 26.9502 45.5214 26.9502 45.288 26.4835L43.8881 24.3835C43.4214 23.6835 42.488 23.4502 41.788 23.9168C41.088 24.3835 40.8547 25.3168 41.3214 26.0168L42.2547 27.1835C42.488 27.6502 42.488 28.3502 42.0214 28.5835C41.788 28.8168 41.5547 28.8168 41.3214 28.8168Z" fill="#E1303C"/>
<path d="M41.7872 38.8501C41.3206 38.8501 41.0872 38.6168 40.8539 38.3835C39.9206 37.2168 30.1206 21.5835 29.6539 20.8835C29.1872 20.1835 28.9539 19.0168 29.1872 18.0835C29.4206 17.1501 29.8872 16.2168 30.5872 15.7501C32.2206 14.5835 34.5539 15.0501 35.7206 16.6835L42.7206 27.6501C42.9539 28.1168 42.9539 28.8168 42.4872 29.0501C42.0206 29.2835 41.3206 29.2835 41.0872 28.8168L34.0872 17.8501C33.6206 17.1501 32.6872 17.1501 31.9872 17.6168C31.5206 17.8501 31.5206 18.0835 31.2872 18.5501C31.2872 19.0168 31.2872 19.2501 31.5206 19.7168C31.7539 19.9501 42.0206 35.8168 42.7206 37.2168C42.9539 37.6835 42.9539 38.3835 42.4872 38.6168C42.2539 38.8501 42.0206 38.8501 41.7872 38.8501Z" fill="#E1303C"/>
<path d="M47.388 50.5169C45.7546 50.5169 42.9546 50.2835 40.1546 48.4169C39.2213 47.7169 37.8213 47.2502 36.4213 47.0169C34.788 46.5502 33.388 46.0835 32.688 45.3835C31.988 44.6835 31.7546 43.5169 32.2213 42.3502C32.9213 40.7169 34.5546 39.5502 37.1213 39.3169C38.288 39.3169 38.988 39.5502 39.688 40.0169C40.388 40.2502 40.8546 40.7169 41.788 40.4835C42.2546 40.4835 42.2546 40.2502 42.2546 40.2502C42.2546 40.0169 41.5546 39.0835 41.3213 38.8502L41.088 38.3835C40.8546 37.9169 40.8546 37.2169 41.3213 36.9835C41.788 36.7502 42.488 36.7502 42.7213 37.4502L42.9546 37.9169C43.6546 38.8502 44.588 40.2502 43.888 41.4169C43.6546 42.1169 42.7213 42.5835 41.788 42.5835C40.1546 42.8169 39.2213 42.1169 38.5213 41.8835C37.8213 41.6502 37.588 41.4169 37.1213 41.4169C35.2546 41.6502 34.3213 42.3502 34.088 43.0502C34.088 43.2835 33.8546 43.5169 34.088 43.7502C34.5546 44.2169 35.7213 44.4502 36.888 44.9169C38.288 45.3835 39.9213 45.8502 41.088 46.5502C44.8213 48.8835 48.5546 48.1835 48.5546 48.1835C49.2546 48.1835 49.7213 48.4169 49.7213 49.1169C49.7213 49.5835 49.488 50.2835 48.788 50.2835C49.0213 50.2835 48.3213 50.5169 47.388 50.5169Z" fill="#E1303C"/>
<path d="M32.921 27.65C30.121 27.65 27.321 26.25 25.921 23.6834C23.5877 19.7167 24.521 14.5834 28.4877 12.0167C29.8877 11.0834 31.2877 10.6167 32.921 10.6167C35.721 10.6167 38.521 12.0167 39.921 14.5834C41.7877 17.3834 41.5543 21.1167 39.4543 23.9167C39.221 24.15 38.9877 24.3834 38.521 24.3834C38.2877 24.3834 37.821 24.15 37.5877 23.9167L33.621 17.85C33.1543 17.15 32.221 17.15 31.521 17.6167C31.0543 17.85 31.0543 18.0834 30.821 18.55C30.821 19.0167 30.821 19.25 31.0543 19.7167L35.2543 25.7834C35.4877 26.0167 35.4877 26.4834 35.2543 26.7167C35.021 26.95 34.7877 27.1834 34.5543 27.4167C34.0877 27.65 33.3877 27.65 32.921 27.65ZM32.921 12.95C31.7543 12.95 30.5877 13.4167 29.6543 13.8834C26.621 15.75 25.921 19.7167 27.7877 22.5167C28.9543 24.3834 30.821 25.3167 32.921 25.3167L29.8877 20.65C29.421 19.95 29.1877 18.7834 29.421 17.85C29.6543 16.9167 30.121 15.9834 30.821 15.5167C32.4543 14.35 34.7877 14.8167 35.9543 16.45L38.9877 21.1167C39.6877 19.25 39.4543 17.15 38.521 15.5167C36.8877 14.1167 35.021 12.95 32.921 12.95Z" fill="#E1303C"/>
<path d="M4.45437 27.4169C4.22104 27.4169 3.98771 27.4169 3.75437 27.1836C3.28771 26.9503 3.28771 26.2503 3.52104 25.7836L4.22104 24.6169C4.45437 24.3836 4.45437 23.9169 4.45437 23.6836C4.45437 23.2169 4.22104 22.9836 3.98771 22.7503C3.28771 22.2836 2.58771 22.5169 2.12104 22.9836C1.65437 23.4503 0.954373 23.6836 0.487706 23.4503C0.0210397 23.2169 -0.212294 22.5169 0.254373 22.0503C1.42104 20.1836 3.52104 19.9503 5.15437 21.1169C5.85437 21.5836 6.55437 22.5169 6.55437 23.4503C6.78771 24.3836 6.55437 25.3169 6.08771 26.0169L5.15437 27.1836C4.92104 27.4169 4.68771 27.4169 4.45437 27.4169Z" fill="#E1303C"/>
<path d="M9.5868 28.8168C9.35346 28.8168 9.12013 28.8168 8.88679 28.5835C8.42013 28.3502 8.42013 27.6502 8.65346 27.1835L9.5868 26.0168C10.0535 25.3168 9.82013 24.3835 9.12013 23.9168C8.42013 23.4502 7.4868 23.6835 7.02013 24.3835L5.62013 26.4835C5.3868 26.9502 4.6868 27.1835 4.22013 26.7168C3.75346 26.2502 3.52013 25.7835 3.98679 25.3168L5.3868 22.9835C6.55346 21.3502 8.8868 20.8835 10.5201 22.0502C11.9201 23.4502 12.3868 25.5502 11.2201 27.1835L10.2868 28.3502C10.2868 28.8168 9.82013 28.8168 9.5868 28.8168Z" fill="#E1303C"/>
<path d="M9.12176 38.8502C8.88842 38.8502 8.65509 38.8502 8.42176 38.6168C7.95509 38.1502 7.95509 37.6835 8.18842 37.2168C9.12176 36.0502 19.3884 19.9502 19.3884 19.7168C19.8551 19.4835 19.8551 19.0168 19.8551 18.7835C19.8551 18.3168 19.6218 18.0835 19.1551 17.8502C18.4551 17.1502 17.5218 17.3835 17.0551 18.0835L10.0551 28.8168C9.82176 29.2835 9.12176 29.5168 8.65509 29.0502C8.18842 28.8168 7.95509 28.1168 8.42176 27.6502L15.4218 16.6835C16.5884 15.2835 18.6884 14.8168 20.3218 15.9835C21.0218 16.4502 21.7218 17.3835 21.7218 18.3168C21.9551 19.2502 21.7218 20.1835 21.2551 21.1168C20.7884 21.8168 10.7551 37.2168 10.0551 38.6168C9.82176 38.8502 9.58842 38.8502 9.12176 38.8502Z" fill="#E1303C"/>
<path d="M3.75508 50.5167C2.58841 50.5167 2.12174 50.2834 1.88841 50.2834C1.42175 50.0501 0.955078 49.5834 0.955078 49.1167C1.18841 48.6501 1.65508 48.1834 2.12174 48.1834C2.12174 48.1834 5.85508 48.8834 9.82174 46.5501C10.9884 45.85 12.6217 45.3834 14.0217 44.9167C15.1884 44.6834 16.5884 44.2167 16.8217 43.7501C17.0551 43.5167 16.8217 43.0501 16.8217 43.0501C16.5884 42.3501 15.6551 41.6501 13.7884 41.4167C13.3217 41.4167 13.0884 41.4167 12.3884 41.8834C11.6884 42.3501 10.7551 42.8167 9.12175 42.5834C7.95508 42.5834 7.25508 42.1167 7.02174 41.4167C6.32174 40.2501 7.25508 38.8501 7.95508 37.9167L8.18841 37.4501C8.42174 36.9834 9.12174 36.75 9.58841 36.9834C10.0551 37.2167 10.2884 37.9167 9.82174 38.3834L9.58841 38.8501C9.35508 39.3167 8.65508 40.0167 8.65508 40.4834H9.12175C10.0551 40.4834 10.7551 40.2501 11.4551 40.0167C12.1551 39.7834 12.8551 39.3167 14.0217 39.3167C16.3551 39.55 18.2217 40.7167 18.9217 42.3501C19.3884 43.5167 19.1551 44.4501 18.4551 45.3834C17.7551 46.0834 16.3551 46.5501 14.7217 47.0167C13.5551 47.4834 11.9217 47.7167 10.9884 48.4167C8.18841 50.2834 5.38841 50.5167 3.75508 50.5167Z" fill="#E1303C"/>
<path d="M18.2207 27.6501C17.5207 27.6501 17.054 27.6501 16.354 27.4168C16.1207 27.4168 15.654 27.1834 15.654 26.7168C15.4207 26.4834 15.654 26.0168 15.654 25.7834L19.6207 19.7168C19.854 19.4834 19.854 19.0168 19.854 18.7834C19.854 18.3168 19.6207 18.0834 19.154 17.8501C18.454 17.1501 17.5207 17.3834 17.054 18.0834L13.0874 24.1501C12.854 24.3834 12.6207 24.6168 12.154 24.6168C11.6874 24.6168 11.454 24.3834 11.2207 24.1501C9.12069 21.3501 9.12069 17.6168 10.9874 14.8168C12.6207 12.4834 15.1874 10.8501 17.9874 10.8501C19.6207 10.8501 21.254 11.3168 22.4207 12.2501C26.3874 14.8168 27.554 19.9501 24.9874 23.9168C23.8207 26.2501 21.0207 27.6501 18.2207 27.6501ZM18.2207 15.2834C18.9207 15.2834 19.6207 15.5168 20.3207 15.9834C21.0207 16.4501 21.7207 17.3834 21.7207 18.3168C21.954 19.2501 21.7207 20.1834 21.254 21.1168L18.2207 25.5501C20.3207 25.5501 22.1874 24.3834 23.354 22.7501C25.2207 19.7168 24.2874 15.9834 21.4874 14.1168C20.554 13.4168 19.3874 12.9501 18.2207 12.9501C15.8874 12.9501 14.0207 14.1168 12.854 15.9834C11.6874 17.8501 11.6874 19.7168 12.3874 21.5834L15.4207 16.9168C16.1207 15.9834 17.054 15.2834 18.2207 15.2834Z" fill="#E1303C"/>
<path d="M25.4538 11.55C24.7538 11.55 24.2871 11.0834 24.2871 10.3834V1.28337C24.2871 0.583366 24.7538 0.116699 25.4538 0.116699C26.1538 0.116699 26.6204 0.583366 26.6204 1.28337V10.3834C26.6204 11.0834 26.1538 11.55 25.4538 11.55Z" fill="#E1303C"/>
<path d="M28.0203 4.31667C27.787 4.31667 27.5536 4.31667 27.3203 4.08333L25.4536 2.45L23.8203 4.08333C23.3536 4.55 22.887 4.55 22.4203 4.08333C21.9536 3.61667 21.9536 2.91667 22.4203 2.68333L24.7536 0.35C25.2203 -0.116667 25.9203 -0.116667 26.1536 0.35L28.487 2.68333C28.9536 3.15 28.9536 3.85 28.487 4.08333C28.487 4.31667 28.2536 4.31667 28.0203 4.31667Z" fill="#E1303C"/>
<path d="M25.4538 39.0835C24.7538 39.0835 24.2871 38.6169 24.2871 37.9169V28.8169C24.2871 28.1169 24.7538 27.8835 25.4538 27.8835C26.1538 27.8835 26.6204 28.3502 26.6204 28.8169V37.9169C26.6204 38.3835 26.1538 39.0835 25.4538 39.0835Z" fill="#E1303C"/>
<path d="M28.0214 31.8501C27.788 31.8501 27.5547 31.8501 27.3214 31.6168L25.688 29.9834L24.0547 31.6168C23.588 32.0834 23.1214 32.0834 22.6547 31.6168C22.188 31.1501 22.188 30.6834 22.6547 30.2168L24.988 27.8834C25.4547 27.4168 26.1547 27.4168 26.388 27.8834L28.7214 30.2168C29.188 30.6834 29.188 31.3834 28.7214 31.6168C28.488 31.8501 28.2547 31.8501 28.0214 31.8501Z" fill="#E1303C"/>
</svg>
