<svg width="116" height="116" viewBox="0 0 116 116" fill="none" xmlns="http://www.w3.org/2000/svg">
<rect x="29" y="29" width="58" height="58" rx="29" stroke="#F6F6F6" stroke-width="58" stroke-dasharray="116 58"/>
<path d="M81.3086 51.4637L74.7926 46.8095V38.8787C74.7917 38.1194 74.4896 37.3915 73.9527 36.8546C73.4158 36.3177 72.6879 36.0157 71.9286 36.0147H67.951C67.1917 36.0157 66.4638 36.3177 65.9269 36.8546C65.39 37.3915 65.0879 38.1194 65.087 38.8787V39.8771L59.6718 36.0092C59.1862 35.6621 58.6042 35.4754 58.0073 35.4753C57.4103 35.4753 56.8283 35.6618 56.3426 36.0088L34.7049 51.4641C34.2112 51.8168 33.8423 52.3172 33.6514 52.8932C33.4604 53.4691 33.4573 54.0908 33.6425 54.6686C33.8277 55.2464 34.1917 55.7504 34.6818 56.108C35.172 56.4657 35.7631 56.6584 36.3698 56.6584H41.2213V77.6605C41.2221 78.4198 41.5241 79.1478 42.061 79.6848C42.5979 80.2217 43.326 80.5237 44.0853 80.5244H71.9286C72.6879 80.5237 73.416 80.2217 73.9529 79.6848C74.4898 79.1478 74.7918 78.4198 74.7926 77.6605V56.6584H79.6441C80.2477 56.6519 80.834 56.4555 81.3198 56.0971C81.8056 55.7387 82.1661 55.2364 82.3504 54.6615C82.5346 54.0866 82.5331 53.4683 82.3461 52.8943C82.1591 52.3203 81.7961 51.8197 81.3086 51.4637ZM66.8374 38.8787C66.8377 38.5835 66.9552 38.3004 67.1639 38.0916C67.3727 37.8829 67.6558 37.7654 67.951 37.7651H71.9286C72.2239 37.7654 72.5069 37.8829 72.7157 38.0916C72.9245 38.3004 73.0419 38.5835 73.0422 38.8787V45.5593L66.8374 41.1273V38.8787ZM80.7048 54.1345C80.6367 54.3616 80.4962 54.5601 80.3046 54.6998C80.1131 54.8395 79.8811 54.9126 79.6441 54.908H73.9174C73.6853 54.908 73.4627 55.0002 73.2986 55.1643C73.1345 55.3285 73.0423 55.5511 73.0422 55.7832V77.6605C73.0418 77.9557 72.9244 78.2387 72.7156 78.4475C72.5069 78.6563 72.2238 78.7737 71.9286 78.7741H44.0853C43.7901 78.7737 43.5071 78.6563 43.2983 78.4475C43.0896 78.2387 42.9721 77.9557 42.9717 77.6605V55.7831C42.9717 55.551 42.8795 55.3285 42.7153 55.1643C42.5512 55.0002 42.3286 54.908 42.0965 54.908H36.3698C36.1318 54.9124 35.8987 54.8399 35.7051 54.7014C35.5115 54.5629 35.3677 54.3657 35.2951 54.139C35.2224 53.9123 35.2247 53.6683 35.3017 53.443C35.3786 53.2178 35.5261 53.0233 35.7223 52.8885L57.36 37.433C57.5489 37.2982 57.7752 37.2257 58.0073 37.2258C58.2393 37.2259 58.4656 37.2985 58.6544 37.4335L80.2911 52.888C80.4867 53.0221 80.6329 53.2166 80.7076 53.4417C80.7823 53.6667 80.7813 53.9101 80.7048 54.1345Z" fill="#1E73BE"/>
<path d="M63.679 51.1092C62.6368 51.1087 61.6051 51.3167 60.6445 51.7211C59.684 52.1255 58.8141 52.718 58.0861 53.4638C57.3642 52.6671 56.4732 52.0421 55.4784 51.6347C54.4835 51.2272 53.4101 51.0477 52.3368 51.1092C48.042 51.1092 45.9558 55.5881 45.8691 55.7786C45.7819 55.9697 43.7871 60.5118 47.9087 65.0433C50.8584 68.1191 54.0638 70.9391 57.4904 73.4728C57.6405 73.5828 57.8218 73.642 58.0079 73.642C58.194 73.642 58.3752 73.5828 58.5254 73.4728C61.952 70.9391 65.1574 68.1191 68.1071 65.0433C72.2286 60.5118 70.2339 55.9697 70.1467 55.7786C70.06 55.5881 67.9737 51.1092 63.679 51.1092ZM66.8123 63.8655C64.0939 66.7022 61.1494 69.3133 58.0079 71.6729C54.8662 69.3135 51.9217 66.7024 49.2036 63.8655C45.8806 60.2118 47.3981 56.6491 47.4622 56.5034C47.4788 56.4671 49.1565 52.8595 52.3368 52.8595C56.0789 52.8595 57.1622 55.1646 57.2028 55.2547C57.267 55.3986 57.3684 55.5226 57.4967 55.614C57.6249 55.7055 57.7753 55.7609 57.9322 55.7747C58.0891 55.7884 58.2468 55.7599 58.389 55.6921C58.5312 55.6244 58.6526 55.5198 58.7408 55.3893C61.7215 51.5856 66.4679 52.1671 68.5514 56.4992C68.6178 56.6492 70.1352 60.2118 66.8123 63.8655Z" fill="#1E73BE"/>
</svg>
