<svg width="116" height="116" viewBox="0 0 116 116" fill="none" xmlns="http://www.w3.org/2000/svg">
<rect x="29" y="29" width="58" height="58" rx="29" stroke="#F6F6F6" stroke-width="58" stroke-dasharray="116 58"/>
<path d="M75.1847 52.6133V61.8692C74.2111 61.3141 73.0828 61.0922 71.9716 61.2376C70.8603 61.3829 69.827 61.8873 69.0289 62.6741L63.0013 68.1754C62.2533 68.8568 61.6557 69.6868 61.2465 70.6122C60.8373 71.5376 60.6257 72.5383 60.625 73.5501V81.6251C60.6249 81.74 60.6475 81.8538 60.6915 81.96C60.7354 82.0662 60.7999 82.1627 60.8811 82.2439C60.9624 82.3252 61.0589 82.3896 61.1651 82.4336C61.2713 82.4775 61.3851 82.5001 61.5 82.5001H72.505C72.6199 82.5001 72.7337 82.4775 72.8399 82.4336C72.9461 82.3896 73.0426 82.3252 73.1239 82.2439C73.2051 82.1627 73.2696 82.0662 73.3135 81.96C73.3575 81.8538 73.3801 81.74 73.38 81.6251V80.2194C73.3793 79.3319 73.6673 78.4681 74.2003 77.7585L80.7432 69.0401C81.5031 68.0281 81.9131 66.7963 81.9113 65.5307V52.6135C81.7944 48.1642 75.2887 48.199 75.1847 52.6133ZM80.1613 65.5307C80.1625 66.4182 79.8748 67.282 79.3418 67.9916L72.799 76.71C71.9414 77.8749 71.527 79.3072 71.63 80.7501H62.375V73.5501C62.3755 72.7818 62.5362 72.022 62.847 71.3193C63.1577 70.6166 63.6116 69.9864 64.1797 69.4691L70.2397 63.9362C70.8852 63.3168 71.7458 62.9717 72.6404 62.9736C73.535 62.9756 74.3941 63.3243 75.0369 63.9465C75.0865 63.9961 75.1257 64.055 75.1522 64.1199C75.1787 64.1849 75.192 64.2544 75.1912 64.3245C75.1905 64.3946 75.1758 64.4639 75.148 64.5282C75.1201 64.5926 75.0798 64.6507 75.0292 64.6993L68.3531 71.3745C68.1944 71.5397 68.1067 71.7605 68.109 71.9896C68.1113 72.2186 68.2033 72.4376 68.3652 72.5996C68.5272 72.7616 68.7462 72.8536 68.9753 72.8559C69.2043 72.8582 69.4252 72.7706 69.5903 72.6119L76.2665 65.9366C76.6934 65.505 76.9335 64.9227 76.9347 64.3156V52.6134C76.9341 52.4004 76.9764 52.1895 77.0591 51.9933C77.1417 51.797 77.263 51.6194 77.4157 51.471C77.643 51.2511 77.9296 51.1025 78.2403 51.0436C78.551 50.9847 78.8721 51.018 79.1641 51.1395C79.4561 51.261 79.7061 51.4653 79.8833 51.7272C80.0605 51.9891 80.1571 52.2972 80.1613 52.6134L80.1613 65.5307Z" fill="#1E73BE"/>
<path d="M47.0018 62.7039C46.2031 61.9083 45.1661 61.3959 44.0489 61.2448C42.9317 61.0938 41.7958 61.3124 40.8145 61.8674V52.6134C40.6994 48.1771 34.2015 48.1842 34.0879 52.6133V65.5306C34.0863 66.7972 34.4969 68.0299 35.2577 69.0426L41.797 77.7558C42.6797 78.8246 42.6552 80.3146 42.6191 81.625C42.6191 81.7399 42.6417 81.8537 42.6856 81.9599C42.7296 82.0661 42.794 82.1626 42.8753 82.2438C42.9565 82.3251 43.053 82.3895 43.1592 82.4335C43.2654 82.4774 43.3792 82.5 43.4941 82.5H54.4992C54.6141 82.5 54.7279 82.4774 54.8341 82.4335C54.9403 82.3895 55.0368 82.3251 55.118 82.2438C55.1993 82.1626 55.2637 82.0661 55.3077 81.9599C55.3516 81.8537 55.3742 81.7399 55.3742 81.625V73.55C55.3736 72.5384 55.1621 71.5381 54.753 70.6129C54.344 69.6878 53.7465 68.8581 52.9987 68.1769L47.0018 62.7039ZM53.6242 80.7499H44.3691C44.4721 79.306 44.0571 77.8727 43.1985 76.7073L36.6591 67.9941C36.1251 67.2838 35.8369 66.4191 35.8379 65.5306V52.6132C35.8445 52.1897 36.0173 51.7857 36.3191 51.4885C36.6209 51.1913 37.0275 51.0247 37.4511 51.0247C37.8747 51.0247 38.2813 51.1912 38.5832 51.4884C38.885 51.7856 39.0579 52.1896 39.0644 52.6131C39.0781 52.6468 39.0457 64.3296 39.0645 64.3659C39.0755 64.9562 39.315 65.5192 39.7327 65.9364L46.4088 72.6117C46.574 72.7704 46.7948 72.858 47.0238 72.8558C47.2529 72.8535 47.4719 72.7615 47.6339 72.5995C47.7959 72.4376 47.8879 72.2185 47.8902 71.9895C47.8925 71.7604 47.8049 71.5396 47.6462 71.3744L40.9699 64.6991C40.2211 63.7237 42.615 62.8627 43.366 62.944C43.818 62.9434 44.2656 63.0335 44.6821 63.2091C45.0987 63.3846 45.4758 63.642 45.791 63.966L51.8203 69.4706C52.3882 69.9877 52.842 70.6176 53.1526 71.32C53.4632 72.0224 53.6238 72.7819 53.6242 73.55V80.7499Z" fill="#1E73BE"/>
<path d="M49.1663 44.2427C50.2286 44.2427 51.2671 43.9277 52.1504 43.3374C53.0337 42.7472 53.7222 41.9083 54.1287 40.9269C54.5353 39.9454 54.6416 38.8654 54.4344 37.8234C54.2271 36.7815 53.7156 35.8244 52.9644 35.0732C52.2132 34.322 51.2561 33.8105 50.2142 33.6032C49.1722 33.396 48.0922 33.5023 47.1107 33.9089C46.1293 34.3154 45.2904 35.0039 44.7002 35.8872C44.1099 36.7705 43.7949 37.809 43.7949 38.8713C43.7966 40.2954 44.363 41.6607 45.37 42.6676C46.3769 43.6746 47.7422 44.241 49.1663 44.2427ZM49.1663 35.25C49.8825 35.25 50.5826 35.4624 51.1782 35.8603C51.7737 36.2582 52.2378 36.8238 52.5119 37.4855C52.786 38.1472 52.8577 38.8754 52.718 39.5778C52.5783 40.2803 52.2334 40.9256 51.7269 41.432C51.2205 41.9385 50.5752 42.2834 49.8727 42.4231C49.1703 42.5628 48.4421 42.4911 47.7804 42.217C47.1187 41.9429 46.5531 41.4788 46.1552 40.8832C45.7573 40.2877 45.5449 39.5876 45.5449 38.8713C45.546 37.9112 45.9278 36.9907 46.6067 36.3118C47.2856 35.6329 48.2061 35.251 49.1663 35.25Z" fill="#1E73BE"/>
<path d="M66.8329 44.2427C67.8795 44.2427 68.9026 43.9323 69.7729 43.3508C70.6431 42.7694 71.3214 41.9429 71.7219 40.9759C72.1225 40.009 72.2273 38.9449 72.0231 37.9184C71.8189 36.8919 71.3149 35.949 70.5748 35.2089C69.8347 34.4688 68.8918 33.9648 67.8653 33.7606C66.8388 33.5564 65.7747 33.6612 64.8078 34.0618C63.8408 34.4623 63.0143 35.1406 62.4329 36.0108C61.8514 36.881 61.541 37.9042 61.541 38.9508C61.5426 40.3538 62.1006 41.6989 63.0927 42.691C64.0848 43.6831 65.4299 44.2411 66.8329 44.2427ZM66.8329 35.4089C67.5334 35.4089 68.2182 35.6167 68.8006 36.0059C69.3831 36.395 69.8371 36.9482 70.1051 37.5954C70.3732 38.2426 70.4434 38.9547 70.3067 39.6418C70.17 40.3288 69.8327 40.9599 69.3374 41.4553C68.842 41.9506 68.2109 42.288 67.5239 42.4246C66.8368 42.5613 66.1247 42.4911 65.4775 42.2231C64.8303 41.955 64.2771 41.501 63.8879 40.9186C63.4987 40.3361 63.291 39.6513 63.291 38.9508C63.2919 38.0117 63.6654 37.1114 64.3294 36.4474C64.9935 35.7833 65.8938 35.4099 66.8329 35.4089Z" fill="#1E73BE"/>
<path d="M72.3248 52.0542C71.7831 46.3829 64.991 42.8505 59.9852 45.3774C59.3696 45.0568 58.6854 44.89 57.9913 44.8913C57.2971 44.8927 56.6136 45.0621 55.9992 45.3852C54.7093 44.7738 53.2886 44.4899 51.8629 44.5585C50.4371 44.627 49.0502 45.046 47.8249 45.7783C46.1301 46.7702 44.8313 48.3186 44.1494 50.1601C40.5752 58.6684 54.1343 66.0188 57.6423 67.549C57.7547 67.599 57.8764 67.6249 57.9994 67.6249C58.1225 67.6249 58.2441 67.5991 58.3565 67.549C61.1391 66.4186 73.7838 59.5116 72.3248 52.0542ZM60.7218 49.3637C60.7218 49.9022 60.5621 50.4285 60.263 50.8762C59.9638 51.3239 59.5386 51.6729 59.0412 51.8789C58.5437 52.085 57.9963 52.1389 57.4682 52.0338C56.9401 51.9288 56.455 51.6695 56.0743 51.2888C55.6936 50.908 55.4343 50.4229 55.3292 49.8948C55.2242 49.3667 55.2781 48.8194 55.4842 48.3219C55.6902 47.8245 56.0392 47.3993 56.4869 47.1001C56.9346 46.801 57.4609 46.6413 57.9993 46.6413C58.7211 46.6421 59.4132 46.9291 59.9236 47.4395C60.4339 47.9499 60.721 48.6419 60.7218 49.3637ZM63.8272 62.381C61.9743 63.6623 60.026 64.7999 57.9993 65.7837C55.9726 64.7998 54.0242 63.6622 52.1712 62.3808C52.4801 62.1506 52.7271 61.8474 52.8902 61.4984C53.0533 61.1494 53.1273 60.7654 53.1057 60.3807C53.0831 60.0171 52.9798 59.6631 52.8031 59.3444C52.6264 59.0258 52.3808 58.7506 52.0843 58.5389C53.6982 57.0569 55.8094 56.2344 58.0005 56.2339C60.1916 56.2333 62.3031 57.0549 63.9177 58.536C63.6204 58.7478 63.3741 59.0234 63.1968 59.3425C63.0195 59.6617 62.9157 60.0163 62.893 60.3807C62.8717 60.7653 62.9458 61.1492 63.1088 61.4982C63.2718 61.8472 63.5186 62.1505 63.8272 62.381ZM65.6549 60.9993C65.0556 61.4883 64.2284 60.546 64.8601 60.0328C67.8739 57.5771 69.4025 55.2862 69.4025 53.2243C69.4224 52.1214 68.8395 49.0299 67.2741 49.8336C67.1785 49.8974 67.0964 49.9794 67.0326 50.0749C66.9688 50.1705 66.9244 50.2777 66.902 50.3904C66.8796 50.5031 66.8797 50.6191 66.9021 50.7318C66.9246 50.8444 66.9691 50.9516 67.033 51.0471C68.3746 53.3562 67.4838 55.0419 65.2249 57.3571C63.2665 55.5251 60.6844 54.5068 58.0027 54.5087C55.321 54.5107 52.7404 55.5327 50.7847 57.3675C48.5175 55.0508 47.6222 53.3549 48.9673 51.0471C49.0961 50.8539 49.143 50.6176 49.0976 50.3899C49.0523 50.1623 48.9185 49.9619 48.7255 49.8328C47.1454 49.0353 46.5907 52.1113 46.5961 53.2242C46.4376 55.2127 48.7004 58.142 51.1387 60.0328C51.2592 60.1406 51.3333 60.2907 51.3456 60.4518C51.358 60.6129 51.3075 60.7726 51.2049 60.8974C51.1023 61.0222 50.9553 61.1025 50.7949 61.1214C50.6344 61.1404 50.4728 61.0967 50.3439 60.9993C47.2264 58.2892 45.5013 56.3832 45.3484 53.0902C45.2616 48.4502 50.2926 45.2077 54.4832 46.633C53.8676 47.4105 53.5309 48.3721 53.5269 49.3637C53.5269 50.5499 53.9981 51.6874 54.8368 52.5262C55.6756 53.3649 56.8132 53.8361 57.9993 53.8361C59.1855 53.8361 60.3231 53.3649 61.1618 52.5262C62.0005 51.6874 62.4717 50.5499 62.4717 49.3637C62.4677 48.3711 62.1303 47.4086 61.5136 46.6307C64.9446 45.4818 69.2283 47.4367 70.2935 50.9766C71.5088 55.173 69.3122 57.8513 65.6549 60.9993Z" fill="#1E73BE"/>
</svg>
