<svg width="116" height="116" viewBox="0 0 116 116" fill="none" xmlns="http://www.w3.org/2000/svg">
<rect x="29" y="29" width="58" height="58" rx="29" stroke="#F6F6F6" stroke-width="58" stroke-dasharray="116 58"/>
<path d="M82.5 58H81.3333V48.6667C81.3333 47.7384 80.9646 46.8482 80.3082 46.1918C79.6518 45.5354 78.7616 45.1667 77.8333 45.1667H76.7367L70.9033 35.0633C70.7436 34.7992 70.4857 34.6092 70.1861 34.5348C69.8865 34.4605 69.5697 34.5079 69.305 34.6667L64.8367 37.2217L61.57 31.5633C61.4102 31.2992 61.1523 31.1092 60.8528 31.0348C60.5532 30.9605 60.2364 31.0079 59.9717 31.1667L51.805 35.8333H35.8333C34.2862 35.8333 32.8025 36.4479 31.7085 37.5419C30.6146 38.6358 30 40.1196 30 41.6667V79C30 80.5471 30.6146 82.0308 31.7085 83.1248C32.8025 84.2187 34.2862 84.8333 35.8333 84.8333H77.8333C78.7616 84.8333 79.6518 84.4646 80.3082 83.8082C80.9646 83.1518 81.3333 82.2616 81.3333 81.3333V72H82.5C83.4283 72 84.3185 71.6312 84.9749 70.9749C85.6312 70.3185 86 69.4282 86 68.5V61.5C86 60.5717 85.6312 59.6815 84.9749 59.0251C84.3185 58.3687 83.4283 58 82.5 58ZM69.4567 37.245L74.0417 45.1667H55.725L69.4567 37.245ZM60.1233 33.745L62.8183 38.4117L51.0583 45.1667H40.325L60.1233 33.745ZM33.3483 39.1933C34.6667 37.8517 34.76 38.1667 47.7917 38.1667L35.6817 45.1667C35.0018 45.1394 34.3446 44.9145 33.7905 44.5196C33.2364 44.1246 32.8094 43.5767 32.5618 42.9429C32.3143 42.3091 32.2568 41.6169 32.3965 40.951C32.5362 40.285 32.8669 39.6742 33.3483 39.1933ZM79 81.3333C79 81.6427 78.8771 81.9395 78.6583 82.1583C78.4395 82.3771 78.1427 82.5 77.8333 82.5H35.8333C34.9051 82.5 34.0148 82.1312 33.3585 81.4749C32.7021 80.8185 32.3333 79.9282 32.3333 79V46.3333C34.5617 48.025 32.7417 47.5 77.8333 47.5C78.1427 47.5 78.4395 47.6229 78.6583 47.8417C78.8771 48.0605 79 48.3572 79 48.6667V58H72C70.1435 58 68.363 58.7375 67.0503 60.0502C65.7375 61.363 65 63.1435 65 65C65 66.8565 65.7375 68.637 67.0503 69.9497C68.363 71.2625 70.1435 72 72 72H79V81.3333ZM83.6667 68.5C83.6667 68.8094 83.5438 69.1062 83.325 69.3249C83.1062 69.5437 82.8094 69.6667 82.5 69.6667H72C70.7623 69.6667 69.5753 69.175 68.7002 68.2998C67.825 67.4246 67.3333 66.2377 67.3333 65C67.3333 63.7623 67.825 62.5753 68.7002 61.7002C69.5753 60.825 70.7623 60.3333 72 60.3333H82.5C82.8094 60.3333 83.1062 60.4562 83.325 60.675C83.5438 60.8938 83.6667 61.1906 83.6667 61.5V68.5Z" fill="#1E73BE"/>
<path d="M72.8281 64.1716C72.6922 64.0368 72.5252 63.9375 72.342 63.8825C72.1587 63.8275 71.9647 63.8184 71.777 63.856C71.5894 63.8937 71.4139 63.9769 71.266 64.0984C71.1181 64.2198 71.0024 64.3758 70.929 64.5525C70.8556 64.7293 70.8269 64.9214 70.8452 65.1118C70.8636 65.3023 70.9285 65.4854 71.0343 65.6448C71.1401 65.8043 71.2835 65.9353 71.4518 66.0263C71.6202 66.1173 71.8084 66.1655 71.9997 66.1666C72.2315 66.1679 72.4583 66.1002 72.6514 65.9721C72.8445 65.844 72.9951 65.6613 73.084 65.4473C73.1729 65.2333 73.196 64.9976 73.1504 64.7704C73.1048 64.5432 72.9926 64.3347 72.8281 64.1716Z" fill="#1E73BE"/>
</svg>
