<svg width="116" height="116" viewBox="0 0 116 116" fill="none" xmlns="http://www.w3.org/2000/svg">
<rect x="29" y="29" width="58" height="58" rx="29" stroke="#F6F6F6" stroke-width="58" stroke-dasharray="116 58"/>
<path d="M66.5106 74.1282C66.7346 74.3522 67.0706 74.4642 67.2946 74.4642C67.6306 74.4642 67.8546 74.3522 68.0786 74.1282L76.1426 66.0642C76.5906 65.6162 76.5906 64.9442 76.1426 64.4962C75.6946 64.0482 75.0226 64.0482 74.5746 64.4962L67.2946 71.7762L64.0466 68.5282C63.5986 68.0802 62.9266 68.0802 62.4786 68.5282C62.0306 68.9762 62.0306 69.6482 62.4786 70.0962L66.5106 74.1282Z" fill="#1E73BE"/>
<path d="M64.7198 41.0881C64.7198 35.1521 60.6878 31.1201 54.8638 31.1201C48.9278 31.1201 45.0078 35.1521 45.0078 41.0881C45.0078 47.0241 49.0398 53.6321 54.8638 53.6321C60.6878 53.6321 64.7198 47.0241 64.7198 41.0881ZM47.2478 41.0881C47.2478 36.3841 50.1598 33.3601 54.8638 33.3601C59.5678 33.3601 62.4798 36.3841 62.4798 41.0881C62.4798 46.4641 58.8958 51.3921 54.8638 51.3921C50.8318 51.3921 47.2478 46.5761 47.2478 41.0881Z" fill="#1E73BE"/>
<path d="M35.5994 76.7041H55.7594C58.4474 81.5201 63.4874 84.8801 69.4234 84.8801C77.9354 84.8801 84.8794 77.9361 84.8794 69.3121C84.8794 60.6881 77.9354 53.7441 69.3114 53.7441C65.7274 53.7441 62.3674 54.9761 59.6794 57.1041C58.4474 56.9921 57.2154 56.8801 55.7594 56.8801C53.9674 56.8801 52.1754 56.8801 50.4954 56.9921C45.9034 57.3281 41.9834 58.3361 38.9594 60.1281C34.7034 62.4801 32.1274 66.0641 31.1194 70.8801C30.7834 72.3361 31.2314 73.9041 32.1274 75.0241C33.0234 76.1441 34.2554 76.7041 35.5994 76.7041ZM82.6394 69.3121C82.6394 76.7041 76.7034 82.6401 69.3114 82.6401C61.9194 82.6401 55.9834 76.7041 55.9834 69.3121C55.9834 61.9201 61.9194 55.9841 69.3114 55.9841C76.7034 55.9841 82.6394 62.0321 82.6394 69.3121ZM33.4714 71.4401C34.3674 67.0721 36.7194 64.2721 39.6314 62.4801C43.4394 60.1281 48.3674 59.4561 52.8474 59.2321H55.7594C56.3194 59.2321 56.9914 59.2321 57.5514 59.3441C55.1994 62.0321 53.8554 65.6161 53.8554 69.4241C53.8554 71.2161 54.1914 73.0081 54.7514 74.5761H35.5994C35.0394 74.5761 34.3674 74.3521 33.9194 73.7921C33.4714 73.1201 33.2474 72.2241 33.4714 71.4401Z" fill="#1E73BE"/>
</svg>
