<svg width="56" height="56" viewBox="0 0 56 56" fill="none" xmlns="http://www.w3.org/2000/svg">
<g clip-path="url(#clip0_718_1062)">
<path d="M19.0981 19.7194C21.512 22.6977 24.5975 25.4047 27.5626 27.147C27.6993 27.2269 27.8525 27.2673 28.0056 27.2673C28.1587 27.2673 28.3129 27.2269 28.4496 27.1459C31.4104 25.4036 34.4915 22.6955 36.9021 19.7183C39.4812 16.5333 41.0628 13.3428 41.3548 10.7353C41.6337 8.26124 40.855 5.9764 39.1651 4.30187C37.5945 2.73234 35.501 1.86828 33.2709 1.86828C31.3229 1.86828 29.481 2.52781 28.0034 3.74078C24.732 1.06656 19.8834 1.25249 16.8318 4.30078C15.1409 5.9764 14.3632 8.26124 14.6421 10.7342C14.9364 13.345 16.5179 16.5355 19.0981 19.7194ZM18.0667 5.54328C18.0678 5.54218 18.0678 5.54109 18.0689 5.54109C19.354 4.25812 21.0406 3.61718 22.7282 3.61718C24.4159 3.61718 26.1035 4.25812 27.3876 5.54109C27.5517 5.70515 27.7737 5.79703 28.0056 5.79703H28.0067C28.2385 5.79703 28.4617 5.70406 28.6257 5.53999C29.8595 4.30187 31.51 3.61937 33.272 3.61937C35.0351 3.61937 36.6889 4.30187 37.9325 5.54328C39.6037 7.19812 39.771 9.17453 39.6168 10.5406C39.3609 12.8211 37.915 15.69 35.5426 18.618C33.3792 21.29 30.6557 23.7269 28.0056 25.3708C25.351 23.7269 22.6232 21.29 20.4576 18.618C18.0853 15.69 16.6382 12.8222 16.3823 10.5406C16.2292 9.17453 16.3965 7.19921 18.0667 5.54328ZM54.9031 8.94156C54.191 8.22296 53.246 7.82812 52.2507 7.82812C52.2398 7.82812 52.23 7.82812 52.2201 7.82812C50.1475 7.82812 48.4532 9.50156 48.4368 11.5753L48.427 13.1634C48.2071 13.1252 47.9862 13.1055 47.7631 13.1055C45.6992 13.1055 44.0104 14.7778 43.9918 16.8494V16.8527L43.9864 17.7156C43.8321 17.697 43.6757 17.6872 43.5171 17.6872C43.5073 17.6872 43.4964 17.6872 43.4865 17.6872C41.4215 17.6872 39.7328 19.3606 39.7153 21.4333L39.6814 26.0686C39.2668 26.2272 38.8698 26.4514 38.5067 26.7434L30.5989 33.0675C29.4559 33.9851 28.5842 35.0745 28.0012 36.2995C27.415 35.0734 26.5432 33.9841 25.4014 33.0664L17.4957 26.7445C17.1315 26.4525 16.7345 26.2283 16.32 26.0697L16.286 21.4333C16.2784 20.427 15.8759 19.482 15.1562 18.7733C14.4442 18.0733 13.5068 17.6883 12.5225 17.6883C12.3496 17.6883 12.1812 17.6981 12.016 17.7189L12.0106 16.8537V16.8527C11.9942 14.7811 10.3054 13.1077 8.24699 13.1077C8.23714 13.1077 8.2262 13.1077 8.21636 13.1077C8.00308 13.1077 7.7898 13.1273 7.57652 13.1656L7.56667 11.5753C7.54699 9.50156 5.85277 7.82703 3.78777 7.82703C3.77792 7.82703 3.76699 7.82703 3.75714 7.82703C2.75417 7.82703 1.81027 8.22296 1.09714 8.94046C0.38183 9.66234 -0.00754546 10.6161 0.000110795 11.6245L0.116048 29.235C0.130267 32.7656 1.59808 35.7942 4.3587 37.9916L9.93027 42.4584C12.226 44.2806 13.451 46.8039 13.4751 49.7537L13.5014 53.2636C13.5046 53.7448 13.8962 54.132 14.3764 54.132H14.3829C14.8664 54.1287 15.2546 53.7339 15.2514 53.2505L15.2251 49.7406C15.1967 46.2428 13.742 43.2503 11.0218 41.0912L5.45136 36.6244C3.11839 34.7672 1.87808 32.21 1.86714 29.2252L1.75011 11.6114C1.74574 11.0711 1.95464 10.5614 2.33855 10.1731C2.72027 9.78812 3.22339 9.57703 3.76261 9.57703H3.77902C4.89355 9.57703 5.80355 10.475 5.81339 11.5852L5.90417 26.3628C5.91949 27.9345 6.57027 29.2755 7.78324 30.238L19.6821 39.7481C20.0595 40.05 20.6107 39.9887 20.9115 39.6114C21.2134 39.2341 21.1521 38.6828 20.7748 38.382L13.054 32.2111C12.4601 31.7167 12.1342 31.0134 12.0992 30.2927C12.0992 30.2916 12.0992 30.2916 12.0992 30.2905C12.0992 30.2883 12.0992 30.2872 12.0992 30.285L12.0981 30.0575C12.1189 29.5139 12.3059 28.9725 12.669 28.5164C13.5867 27.3767 15.2601 27.193 16.402 28.1095L24.3076 34.4314C26.1331 35.897 27.1098 37.9041 27.1328 40.2316L27.2104 53.2636C27.2137 53.7448 27.6042 54.1331 28.0854 54.1331H28.0909C28.5743 54.1298 28.9637 53.7361 28.9604 53.2527L28.8828 40.2272C28.8948 37.9019 29.8671 35.897 31.6937 34.4303L39.6015 28.1062C40.7423 27.1908 42.4157 27.3734 43.3334 28.5142C43.6823 28.9484 43.8781 29.4734 43.9043 30.0258L43.9021 30.2948V30.3003V30.308C43.9 30.3528 43.8956 30.3987 43.8912 30.4436C43.8157 31.1392 43.481 31.7616 42.9495 32.2045L35.2254 38.3777C34.8481 38.6795 34.7868 39.2297 35.0887 39.607C35.3906 39.9844 35.9407 40.0456 36.3181 39.7437L48.2148 30.2358C49.43 29.2711 50.0807 27.9312 50.096 26.3562L50.1868 11.5841C50.1956 10.4728 51.1067 9.57484 52.2278 9.57484C52.7648 9.57374 53.2767 9.78265 53.6617 10.1709C54.0456 10.5581 54.2545 11.0689 54.2501 11.6103L54.1342 29.2252C54.1221 32.2067 52.8829 34.7639 50.5478 36.6233L44.9828 41.0847C42.2582 43.247 40.8035 46.2395 40.7762 49.7373L40.75 53.2472C40.7467 53.7306 41.135 54.1255 41.6184 54.1287H41.625C42.1051 54.1287 42.4967 53.7416 42.5 53.2603L42.5262 49.7516C42.5503 46.8006 43.7753 44.2773 46.0743 42.453L51.6404 37.9905C54.4032 35.7909 55.871 32.7623 55.8853 29.2339L56.0001 11.6256C56.0078 10.6161 55.6184 9.66234 54.9031 8.94156ZM7.65417 26.3486L7.58417 14.9627C7.79855 14.8916 8.01949 14.8555 8.23605 14.8555C9.32542 14.8555 10.2496 15.772 10.2584 16.8636L10.347 30.0466L8.8737 28.8686C8.07527 28.2353 7.66511 27.3855 7.65417 26.3486ZM12.0751 26.6712L12.027 19.4886C12.1757 19.4536 12.3332 19.435 12.4973 19.435C13.0289 19.4317 13.5407 19.6373 13.9279 20.018C14.3151 20.3986 14.5306 20.9061 14.535 21.4442L14.5667 25.7809C13.6785 25.817 12.8046 26.1178 12.0751 26.6712ZM41.4335 25.7809L41.4653 21.4453C41.474 20.3527 42.3982 19.4361 43.4942 19.4361C43.6615 19.4372 43.8212 19.4547 43.9743 19.4897L43.9262 26.6712C43.1956 26.1167 42.3217 25.8159 41.4335 25.7809ZM47.1243 28.8708L45.6543 30.0455C45.6543 30.0247 45.6543 30.0028 45.6532 29.982L45.7418 16.8647C45.7506 15.772 46.6748 14.8555 47.7707 14.8555C47.9884 14.8555 48.2039 14.8916 48.415 14.9616L48.345 26.3453C48.3351 27.3855 47.925 28.2353 47.1243 28.8708Z" fill="#E1303C"/>
</g>
<defs>
<clipPath id="clip0_718_1062">
<rect width="56" height="56" fill="white"/>
</clipPath>
</defs>
</svg>
