<svg width="56" height="56" viewBox="0 0 56 56" fill="none" xmlns="http://www.w3.org/2000/svg">
<mask id="path-1-inside-1_718_1164" fill="white">
<path d="M52.6956 41.9883C52.5014 42.1766 52.2505 42.2701 52 42.2701C51.7387 42.2701 51.4777 42.1683 51.2816 41.9656L48.515 39.1068C46.5929 37.1205 45.6611 34.5824 45.8205 31.7667C45.9551 29.388 44.9172 27.1999 42.6475 25.0774C42.244 24.7 42.2225 24.0667 42.5996 23.6629C42.9767 23.2591 43.6097 23.2377 44.013 23.615C46.7053 26.1327 47.9852 28.9133 47.8173 31.8798C47.6886 34.1548 48.4067 36.1179 49.9518 37.7144L52.7183 40.5732C53.1025 40.9703 53.0924 41.6037 52.6956 41.9883ZM42.0462 51.3582C42.4 51.7827 42.3429 52.4137 41.9188 52.7678C41.7318 52.9239 41.5046 53 41.2788 53C40.9924 53 40.7081 52.8775 40.5103 52.6402L38.009 49.6389C37.5998 49.2388 37.2519 48.8427 36.9151 48.4593C35.7486 47.1313 34.978 46.2541 32.7401 46.2541C30.8617 46.2541 29.091 45.7729 27.4682 44.8259C26.3721 45.2111 25.2229 45.4056 24.0246 45.4056C21.7868 45.4056 21.0162 46.283 19.8497 47.611C19.513 47.9944 19.1651 48.3904 18.7559 48.7905L15.5475 52.6402C15.3497 52.8775 15.0654 53 14.779 53C14.5532 53 14.326 52.9238 14.139 52.7678C13.7149 52.4137 13.6578 51.7827 14.0116 51.3582L17.2533 47.4687C17.276 47.4416 17.3001 47.4156 17.3255 47.3908C17.6939 47.0339 18.0262 46.6555 18.3475 46.2897C19.5934 44.8711 20.8818 43.4042 24.0245 43.4042C25.1204 43.4042 26.1536 43.2107 27.1344 42.8199C27.1772 42.7989 27.221 42.7803 27.2662 42.7657C28.5101 42.2451 29.6696 41.4037 30.7653 40.2303L34.4949 36.2358C36.7607 33.8088 38.0014 32.2854 37.1554 29.1991C36.7637 27.77 35.7687 26.6261 34.8065 25.5197C33.3525 23.8479 31.7221 21.9701 32.5998 19.2162L30.1243 17.2046C30.12 18.0608 29.7925 18.9158 29.1411 19.5678C28.5121 20.1973 27.6748 20.5455 26.7816 20.5504C26.7772 21.4066 26.4497 22.2612 25.7984 22.913C25.1472 23.5647 24.2931 23.8925 23.4376 23.897C23.4327 24.7909 23.0847 25.6288 22.4557 26.2583C21.8268 26.8878 20.9895 27.236 20.0964 27.2409C20.092 28.0971 19.7645 28.9517 19.1132 29.6035C18.4798 30.2374 17.6351 30.5866 16.7348 30.5866C15.8345 30.5866 14.9898 30.2374 14.3563 29.6033L11.9541 27.1994C11.6968 26.9419 11.4907 26.6524 11.3344 26.3439C10.7404 27.7278 10.8315 29.1471 10.9157 30.457C10.9258 30.6142 10.9357 30.7682 10.9442 30.9186C11.1035 33.7344 10.1718 36.2725 8.2497 38.2587L4.71841 41.908C4.52231 42.1106 4.26121 42.2125 3.99991 42.2125C3.74941 42.2125 3.49852 42.1188 3.30432 41.9307C2.90762 41.5462 2.89742 40.9126 3.28162 40.5155L6.813 36.8662C8.358 35.2697 9.0761 33.3067 8.9474 31.0318C8.9392 30.8864 8.9296 30.7375 8.9198 30.5855C8.7791 28.3976 8.5681 25.0964 12.0021 22.3931C12.466 21.9467 13.027 21.6597 13.6163 21.5321C13.5423 21.2519 13.5033 20.9601 13.5033 20.6621C13.5033 19.7611 13.8522 18.9159 14.4857 18.2819C14.9707 17.7966 15.5796 17.4789 16.2423 17.3563C16.1918 17.1221 16.165 16.881 16.165 16.6355C16.165 15.7345 16.5139 14.8891 17.1473 14.2553C18.237 13.1646 19.8942 12.9813 21.1759 13.7029C21.336 13.2277 21.6043 12.7812 21.982 12.4032C23.2933 11.0907 25.4273 11.0908 26.7387 12.4032L27.7912 13.4565C28.4229 13.4987 29.0263 13.7343 29.529 14.1429L33.6113 17.4603C34.0185 17.0713 34.514 16.7987 35.0368 16.6954C35.8759 16.5298 36.7148 16.7912 37.3994 17.4314L41.7103 21.4624C42.1139 21.8398 42.1353 22.4731 41.7582 22.8769C41.3811 23.2808 40.7484 23.3022 40.3448 22.9248L36.0339 18.8938C35.7203 18.6006 35.4973 18.6446 35.4237 18.6591C35.1468 18.7137 34.8569 18.9771 34.7024 19.3145C33.8316 21.2155 34.6565 22.2991 36.3149 24.2059C37.3727 25.422 38.5715 26.8006 39.0839 28.6698C40.2669 32.985 38.0754 35.3324 35.9561 37.6025L32.2264 41.597C31.4396 42.4398 30.608 43.1431 29.7351 43.7075C30.6843 44.0728 31.6786 44.2529 32.7399 44.2529C35.8826 44.2529 37.171 45.7197 38.417 47.1382C38.7383 47.504 39.0706 47.8823 39.439 48.2394C39.4645 48.2641 39.4886 48.2901 39.5113 48.3172L42.0462 51.3582ZM17.6992 26.2581L15.2969 23.8539C14.7653 23.3219 13.9002 23.3219 13.3685 23.8539C12.8368 24.386 12.8368 25.2518 13.3685 25.7838L15.7708 28.1878C16.0266 28.4438 16.369 28.5848 16.7351 28.5848C17.1012 28.5848 17.4436 28.4439 17.6993 28.1879C18.231 27.6559 18.2309 26.7901 17.6992 26.2581ZM21.4384 23.8778C21.4384 23.5115 21.2976 23.1687 21.0419 22.9128L17.8285 19.697C17.5727 19.441 17.2304 19.3001 16.8643 19.3001C16.4982 19.3001 16.1558 19.441 15.9 19.697C15.6443 19.9529 15.5035 20.2955 15.5035 20.6619C15.5035 21.0283 15.6443 21.371 15.9 21.6269L19.1134 24.8428C19.3691 25.0988 19.7115 25.2397 20.0776 25.2397C20.4437 25.2397 20.7861 25.0988 21.0418 24.8429C21.2975 24.587 21.4384 24.2442 21.4384 23.8778ZM24.3844 19.5677L20.4901 15.6703C20.2243 15.4043 19.8751 15.2713 19.5259 15.2713C19.1767 15.2713 18.8275 15.4043 18.5616 15.6704C18.3059 15.9263 18.1651 16.2689 18.1651 16.6354C18.1651 17.0018 18.3059 17.3444 18.5616 17.6003L22.456 21.4977C22.9876 22.0297 23.8527 22.0296 24.3844 21.4977C24.916 20.9657 24.916 20.0997 24.3844 19.5677ZM27.7271 16.2225L25.3247 13.8183C25.0589 13.5523 24.7097 13.4193 24.3605 13.4193C24.0113 13.4193 23.6621 13.5523 23.3962 13.8184C22.8647 14.3504 22.8647 15.2162 23.3962 15.7482L25.7985 18.1523C26.0543 18.4083 26.3967 18.5492 26.7628 18.5492C27.1289 18.5492 27.4713 18.4083 27.7271 18.1523C28.2587 17.6203 28.2587 16.7546 27.7271 16.2225ZM36.026 11.2053C36.026 6.6809 39.7041 3 44.225 3C48.7459 3 52.424 6.6809 52.424 11.2053C52.424 15.7298 48.746 19.4106 44.225 19.4106C39.704 19.4106 36.026 15.7298 36.026 11.2053ZM38.026 11.2053C38.026 14.6261 40.8069 17.4091 44.225 17.4091C47.6431 17.4091 50.4241 14.626 50.4241 11.2053C50.4241 7.78464 47.6432 5.00152 44.225 5.00152C40.8068 5.00152 38.026 7.78454 38.026 11.2053ZM41.6885 14.2537C41.8439 14.5231 42.1157 14.7049 42.424 14.7454C42.4676 14.7512 42.5112 14.754 42.5546 14.754C42.818 14.754 43.0729 14.6498 43.2616 14.4609L48.3536 9.36494C48.7441 8.97414 48.7441 8.34046 48.3536 7.94956C47.9631 7.55886 47.3299 7.55886 46.9394 7.94956L42.7688 12.1233L41.6694 10.2177C41.3933 9.73902 40.7816 9.575 40.3034 9.85141C39.8251 10.1278 39.6613 10.7398 39.9374 11.2184L41.6885 14.2537Z"/>
</mask>
<path d="M52.6956 41.9883C52.5014 42.1766 52.2505 42.2701 52 42.2701C51.7387 42.2701 51.4777 42.1683 51.2816 41.9656L48.515 39.1068C46.5929 37.1205 45.6611 34.5824 45.8205 31.7667C45.9551 29.388 44.9172 27.1999 42.6475 25.0774C42.244 24.7 42.2225 24.0667 42.5996 23.6629C42.9767 23.2591 43.6097 23.2377 44.013 23.615C46.7053 26.1327 47.9852 28.9133 47.8173 31.8798C47.6886 34.1548 48.4067 36.1179 49.9518 37.7144L52.7183 40.5732C53.1025 40.9703 53.0924 41.6037 52.6956 41.9883ZM42.0462 51.3582C42.4 51.7827 42.3429 52.4137 41.9188 52.7678C41.7318 52.9239 41.5046 53 41.2788 53C40.9924 53 40.7081 52.8775 40.5103 52.6402L38.009 49.6389C37.5998 49.2388 37.2519 48.8427 36.9151 48.4593C35.7486 47.1313 34.978 46.2541 32.7401 46.2541C30.8617 46.2541 29.091 45.7729 27.4682 44.8259C26.3721 45.2111 25.2229 45.4056 24.0246 45.4056C21.7868 45.4056 21.0162 46.283 19.8497 47.611C19.513 47.9944 19.1651 48.3904 18.7559 48.7905L15.5475 52.6402C15.3497 52.8775 15.0654 53 14.779 53C14.5532 53 14.326 52.9238 14.139 52.7678C13.7149 52.4137 13.6578 51.7827 14.0116 51.3582L17.2533 47.4687C17.276 47.4416 17.3001 47.4156 17.3255 47.3908C17.6939 47.0339 18.0262 46.6555 18.3475 46.2897C19.5934 44.8711 20.8818 43.4042 24.0245 43.4042C25.1204 43.4042 26.1536 43.2107 27.1344 42.8199C27.1772 42.7989 27.221 42.7803 27.2662 42.7657C28.5101 42.2451 29.6696 41.4037 30.7653 40.2303L34.4949 36.2358C36.7607 33.8088 38.0014 32.2854 37.1554 29.1991C36.7637 27.77 35.7687 26.6261 34.8065 25.5197C33.3525 23.8479 31.7221 21.9701 32.5998 19.2162L30.1243 17.2046C30.12 18.0608 29.7925 18.9158 29.1411 19.5678C28.5121 20.1973 27.6748 20.5455 26.7816 20.5504C26.7772 21.4066 26.4497 22.2612 25.7984 22.913C25.1472 23.5647 24.2931 23.8925 23.4376 23.897C23.4327 24.7909 23.0847 25.6288 22.4557 26.2583C21.8268 26.8878 20.9895 27.236 20.0964 27.2409C20.092 28.0971 19.7645 28.9517 19.1132 29.6035C18.4798 30.2374 17.6351 30.5866 16.7348 30.5866C15.8345 30.5866 14.9898 30.2374 14.3563 29.6033L11.9541 27.1994C11.6968 26.9419 11.4907 26.6524 11.3344 26.3439C10.7404 27.7278 10.8315 29.1471 10.9157 30.457C10.9258 30.6142 10.9357 30.7682 10.9442 30.9186C11.1035 33.7344 10.1718 36.2725 8.2497 38.2587L4.71841 41.908C4.52231 42.1106 4.26121 42.2125 3.99991 42.2125C3.74941 42.2125 3.49852 42.1188 3.30432 41.9307C2.90762 41.5462 2.89742 40.9126 3.28162 40.5155L6.813 36.8662C8.358 35.2697 9.0761 33.3067 8.9474 31.0318C8.9392 30.8864 8.9296 30.7375 8.9198 30.5855C8.7791 28.3976 8.5681 25.0964 12.0021 22.3931C12.466 21.9467 13.027 21.6597 13.6163 21.5321C13.5423 21.2519 13.5033 20.9601 13.5033 20.6621C13.5033 19.7611 13.8522 18.9159 14.4857 18.2819C14.9707 17.7966 15.5796 17.4789 16.2423 17.3563C16.1918 17.1221 16.165 16.881 16.165 16.6355C16.165 15.7345 16.5139 14.8891 17.1473 14.2553C18.237 13.1646 19.8942 12.9813 21.1759 13.7029C21.336 13.2277 21.6043 12.7812 21.982 12.4032C23.2933 11.0907 25.4273 11.0908 26.7387 12.4032L27.7912 13.4565C28.4229 13.4987 29.0263 13.7343 29.529 14.1429L33.6113 17.4603C34.0185 17.0713 34.514 16.7987 35.0368 16.6954C35.8759 16.5298 36.7148 16.7912 37.3994 17.4314L41.7103 21.4624C42.1139 21.8398 42.1353 22.4731 41.7582 22.8769C41.3811 23.2808 40.7484 23.3022 40.3448 22.9248L36.0339 18.8938C35.7203 18.6006 35.4973 18.6446 35.4237 18.6591C35.1468 18.7137 34.8569 18.9771 34.7024 19.3145C33.8316 21.2155 34.6565 22.2991 36.3149 24.2059C37.3727 25.422 38.5715 26.8006 39.0839 28.6698C40.2669 32.985 38.0754 35.3324 35.9561 37.6025L32.2264 41.597C31.4396 42.4398 30.608 43.1431 29.7351 43.7075C30.6843 44.0728 31.6786 44.2529 32.7399 44.2529C35.8826 44.2529 37.171 45.7197 38.417 47.1382C38.7383 47.504 39.0706 47.8823 39.439 48.2394C39.4645 48.2641 39.4886 48.2901 39.5113 48.3172L42.0462 51.3582ZM17.6992 26.2581L15.2969 23.8539C14.7653 23.3219 13.9002 23.3219 13.3685 23.8539C12.8368 24.386 12.8368 25.2518 13.3685 25.7838L15.7708 28.1878C16.0266 28.4438 16.369 28.5848 16.7351 28.5848C17.1012 28.5848 17.4436 28.4439 17.6993 28.1879C18.231 27.6559 18.2309 26.7901 17.6992 26.2581ZM21.4384 23.8778C21.4384 23.5115 21.2976 23.1687 21.0419 22.9128L17.8285 19.697C17.5727 19.441 17.2304 19.3001 16.8643 19.3001C16.4982 19.3001 16.1558 19.441 15.9 19.697C15.6443 19.9529 15.5035 20.2955 15.5035 20.6619C15.5035 21.0283 15.6443 21.371 15.9 21.6269L19.1134 24.8428C19.3691 25.0988 19.7115 25.2397 20.0776 25.2397C20.4437 25.2397 20.7861 25.0988 21.0418 24.8429C21.2975 24.587 21.4384 24.2442 21.4384 23.8778ZM24.3844 19.5677L20.4901 15.6703C20.2243 15.4043 19.8751 15.2713 19.5259 15.2713C19.1767 15.2713 18.8275 15.4043 18.5616 15.6704C18.3059 15.9263 18.1651 16.2689 18.1651 16.6354C18.1651 17.0018 18.3059 17.3444 18.5616 17.6003L22.456 21.4977C22.9876 22.0297 23.8527 22.0296 24.3844 21.4977C24.916 20.9657 24.916 20.0997 24.3844 19.5677ZM27.7271 16.2225L25.3247 13.8183C25.0589 13.5523 24.7097 13.4193 24.3605 13.4193C24.0113 13.4193 23.6621 13.5523 23.3962 13.8184C22.8647 14.3504 22.8647 15.2162 23.3962 15.7482L25.7985 18.1523C26.0543 18.4083 26.3967 18.5492 26.7628 18.5492C27.1289 18.5492 27.4713 18.4083 27.7271 18.1523C28.2587 17.6203 28.2587 16.7546 27.7271 16.2225ZM36.026 11.2053C36.026 6.6809 39.7041 3 44.225 3C48.7459 3 52.424 6.6809 52.424 11.2053C52.424 15.7298 48.746 19.4106 44.225 19.4106C39.704 19.4106 36.026 15.7298 36.026 11.2053ZM38.026 11.2053C38.026 14.6261 40.8069 17.4091 44.225 17.4091C47.6431 17.4091 50.4241 14.626 50.4241 11.2053C50.4241 7.78464 47.6432 5.00152 44.225 5.00152C40.8068 5.00152 38.026 7.78454 38.026 11.2053ZM41.6885 14.2537C41.8439 14.5231 42.1157 14.7049 42.424 14.7454C42.4676 14.7512 42.5112 14.754 42.5546 14.754C42.818 14.754 43.0729 14.6498 43.2616 14.4609L48.3536 9.36494C48.7441 8.97414 48.7441 8.34046 48.3536 7.94956C47.9631 7.55886 47.3299 7.55886 46.9394 7.94956L42.7688 12.1233L41.6694 10.2177C41.3933 9.73902 40.7816 9.575 40.3034 9.85141C39.8251 10.1278 39.6613 10.7398 39.9374 11.2184L41.6885 14.2537Z" fill="#E1303C" stroke="white" stroke-width="0.6" mask="url(#path-1-inside-1_718_1164)"/>
</svg>
