<svg width="56" height="56" viewBox="0 0 56 56" fill="none" xmlns="http://www.w3.org/2000/svg">
<path d="M19 8.625C19.5523 8.625 20 9.07272 20 9.625C20 10.1773 19.5523 10.625 19 10.625H12.875C11.5023 10.625 10.375 11.7523 10.375 13.125V48.125C10.375 49.4977 11.5023 50.625 12.875 50.625H39.125C40.4977 50.625 41.625 49.4977 41.625 48.125V43.75C41.625 43.1977 42.0727 42.75 42.625 42.75C43.1773 42.75 43.625 43.1977 43.625 43.75V48.125C43.625 50.6023 41.6023 52.625 39.125 52.625H12.875C10.3977 52.625 8.375 50.6023 8.375 48.125V13.125C8.375 10.6477 10.3977 8.625 12.875 8.625H19ZM44.8926 35.5186C45.2831 35.128 45.9161 35.128 46.3066 35.5186C46.6969 35.9091 46.6971 36.5422 46.3066 36.9326L34.8438 48.3955C34.6563 48.5826 34.4016 48.6885 34.1367 48.6885C33.8718 48.6884 33.6171 48.5828 33.4297 48.3955L26.9551 41.9199C26.5647 41.5295 26.5648 40.8964 26.9551 40.5059C27.3456 40.1155 27.9786 40.1155 28.3691 40.5059L34.1367 46.2734L44.8926 35.5186ZM39.125 8.625C41.6023 8.625 43.625 10.6477 43.625 13.125V35C43.625 35.5523 43.1773 36 42.625 36C42.0727 36 41.625 35.5523 41.625 35V13.125C41.625 11.7523 40.4977 10.625 39.125 10.625H33C32.4477 10.625 32 10.1773 32 9.625C32 9.07272 32.4477 8.625 33 8.625H39.125ZM17.25 31.9873C18.2855 31.9873 19.125 32.8268 19.125 33.8623C19.125 34.8978 18.2855 35.7373 17.25 35.7373C16.2145 35.7373 15.375 34.8978 15.375 33.8623C15.375 32.8268 16.2145 31.9873 17.25 31.9873ZM35.625 33.125C36.1773 33.125 36.625 33.5727 36.625 34.125C36.625 34.6773 36.1773 35.125 35.625 35.125H23.375C22.8227 35.125 22.375 34.6773 22.375 34.125C22.375 33.5727 22.8227 33.125 23.375 33.125H35.625ZM17.25 33.7373C17.181 33.7373 17.125 33.7933 17.125 33.8623C17.125 33.9313 17.181 33.9873 17.25 33.9873C17.319 33.9873 17.375 33.9313 17.375 33.8623C17.375 33.7933 17.319 33.7373 17.25 33.7373ZM17.25 25.8623C18.2855 25.8623 19.125 26.7018 19.125 27.7373C19.125 28.7728 18.2855 29.6123 17.25 29.6123C16.2145 29.6123 15.375 28.7728 15.375 27.7373C15.375 26.7018 16.2145 25.8623 17.25 25.8623ZM35.625 27C36.1773 27 36.625 27.4477 36.625 28C36.625 28.5523 36.1773 29 35.625 29H23.375C22.8227 29 22.375 28.5523 22.375 28C22.375 27.4477 22.8227 27 23.375 27H35.625ZM17.25 27.6123C17.181 27.6123 17.125 27.6683 17.125 27.7373C17.125 27.8063 17.181 27.8623 17.25 27.8623C17.319 27.8623 17.375 27.8063 17.375 27.7373C17.375 27.6683 17.319 27.6123 17.25 27.6123ZM17.25 19.7373C18.2855 19.7373 19.125 20.5768 19.125 21.6123C19.125 22.6478 18.2855 23.4873 17.25 23.4873C16.2145 23.4873 15.375 22.6478 15.375 21.6123C15.375 20.5768 16.2145 19.7373 17.25 19.7373ZM35.625 20.875C36.1773 20.875 36.625 21.3227 36.625 21.875C36.625 22.4273 36.1773 22.875 35.625 22.875H23.375C22.8227 22.875 22.375 22.4273 22.375 21.875C22.375 21.3227 22.8227 20.875 23.375 20.875H35.625ZM17.25 21.4873C17.181 21.4873 17.125 21.5433 17.125 21.6123C17.125 21.6813 17.181 21.7373 17.25 21.7373C17.319 21.7373 17.375 21.6813 17.375 21.6123C17.375 21.5433 17.319 21.4873 17.25 21.4873ZM27.75 3.375C28.2397 3.375 28.7259 3.5423 29.0918 3.9082C29.4577 4.27411 29.625 4.76025 29.625 5.25V6.00488C30.0717 6.03118 30.5071 6.19848 30.8418 6.5332C31.2077 6.89911 31.375 7.38525 31.375 7.875V10.5C31.375 10.9897 31.2077 11.4759 30.8418 11.8418C30.4759 12.2077 29.9897 12.375 29.5 12.375H22.5C22.0103 12.375 21.5241 12.2077 21.1582 11.8418C20.7923 11.4759 20.625 10.9897 20.625 10.5V7.78711C20.6252 6.81004 21.4028 6.02083 22.375 6.00098V5.25C22.375 4.76025 22.5423 4.27411 22.9082 3.9082C23.2741 3.5423 23.7603 3.375 24.25 3.375H27.75ZM22.625 10.375H29.375V8H22.625V10.375ZM24.375 6H27.625V5.375H24.375V6Z" fill="#E1303C"/>
<path d="M44.8926 35.5186L45.0693 35.6953L45.0694 35.6953L44.8926 35.5186ZM46.3066 35.5186L46.4835 35.3418L46.4834 35.3418L46.3066 35.5186ZM46.3066 36.9326L46.1299 36.7558L46.3066 36.9326ZM34.8438 48.3955L35.0204 48.5724L35.0205 48.5723L34.8438 48.3955ZM34.1367 48.6885L34.1366 48.9385H34.1367V48.6885ZM33.4297 48.3955L33.2529 48.5723L33.253 48.5723L33.4297 48.3955ZM26.9551 41.9199L26.7783 42.0967L26.7783 42.0967L26.9551 41.9199ZM26.9551 40.5059L26.7783 40.3291L26.7782 40.3291L26.9551 40.5059ZM28.3691 40.5059L28.5459 40.3291L28.5459 40.3291L28.3691 40.5059ZM34.1367 46.2734L33.9599 46.4502C34.0576 46.5478 34.2159 46.5478 34.3135 46.4502L34.1367 46.2734ZM29.625 6.00488H29.375C29.375 6.13725 29.4782 6.24667 29.6103 6.25445L29.625 6.00488ZM30.8418 6.5332L30.665 6.70998L30.8418 6.5332ZM20.625 7.78711L20.375 7.78706V7.78711H20.625ZM22.375 6.00098L22.3801 6.25092C22.5162 6.24815 22.625 6.13706 22.625 6.00098H22.375ZM22.625 10.375H22.375C22.375 10.5131 22.4869 10.625 22.625 10.625V10.375ZM29.375 10.375V10.625C29.5131 10.625 29.625 10.5131 29.625 10.375H29.375ZM29.375 8H29.625C29.625 7.86193 29.5131 7.75 29.375 7.75V8ZM22.625 8V7.75C22.4869 7.75 22.375 7.86193 22.375 8H22.625ZM24.375 6H24.125C24.125 6.13807 24.2369 6.25 24.375 6.25V6ZM27.625 6V6.25C27.7631 6.25 27.875 6.13807 27.875 6H27.625ZM27.625 5.375H27.875C27.875 5.23693 27.7631 5.125 27.625 5.125V5.375ZM24.375 5.375V5.125C24.2369 5.125 24.125 5.23693 24.125 5.375H24.375ZM19 8.625V8.875C19.4142 8.875 19.75 9.21079 19.75 9.625H20H20.25C20.25 8.93464 19.6904 8.375 19 8.375V8.625ZM20 9.625H19.75C19.75 10.0392 19.4142 10.375 19 10.375V10.625V10.875C19.6904 10.875 20.25 10.3154 20.25 9.625H20ZM19 10.625V10.375H12.875V10.625V10.875H19V10.625ZM12.875 10.625V10.375C11.3642 10.375 10.125 11.6142 10.125 13.125H10.375H10.625C10.625 11.8904 11.6404 10.875 12.875 10.875V10.625ZM10.375 13.125H10.125V48.125H10.375H10.625V13.125H10.375ZM10.375 48.125H10.125C10.125 49.6358 11.3642 50.875 12.875 50.875V50.625V50.375C11.6404 50.375 10.625 49.3596 10.625 48.125H10.375ZM12.875 50.625V50.875H39.125V50.625V50.375H12.875V50.625ZM39.125 50.625V50.875C40.6358 50.875 41.875 49.6358 41.875 48.125H41.625H41.375C41.375 49.3596 40.3596 50.375 39.125 50.375V50.625ZM41.625 48.125H41.875V43.75H41.625H41.375V48.125H41.625ZM41.625 43.75H41.875C41.875 43.3358 42.2108 43 42.625 43V42.75V42.5C41.9346 42.5 41.375 43.0596 41.375 43.75H41.625ZM42.625 42.75V43C43.0392 43 43.375 43.3358 43.375 43.75H43.625H43.875C43.875 43.0596 43.3154 42.5 42.625 42.5V42.75ZM43.625 43.75H43.375V48.125H43.625H43.875V43.75H43.625ZM43.625 48.125H43.375C43.375 50.4642 41.4642 52.375 39.125 52.375V52.625V52.875C41.7404 52.875 43.875 50.7404 43.875 48.125H43.625ZM39.125 52.625V52.375H12.875V52.625V52.875H39.125V52.625ZM12.875 52.625V52.375C10.5358 52.375 8.625 50.4642 8.625 48.125H8.375H8.125C8.125 50.7404 10.2596 52.875 12.875 52.875V52.625ZM8.375 48.125H8.625V13.125H8.375H8.125V48.125H8.375ZM8.375 13.125H8.625C8.625 10.7858 10.5358 8.875 12.875 8.875V8.625V8.375C10.2596 8.375 8.125 10.5096 8.125 13.125H8.375ZM12.875 8.625V8.875H19V8.625V8.375H12.875V8.625ZM44.8926 35.5186L45.0694 35.6953C45.3622 35.4024 45.837 35.4024 46.1299 35.6953L46.3066 35.5186L46.4834 35.3418C45.9953 34.8536 45.204 34.8536 44.7158 35.3418L44.8926 35.5186ZM46.3066 35.5186L46.1298 35.6953C46.4226 35.9883 46.4226 36.4631 46.1299 36.7558L46.3066 36.9326L46.4834 37.1094C46.9715 36.6213 46.9712 35.8299 46.4835 35.3418L46.3066 35.5186ZM46.3066 36.9326L46.1299 36.7558L34.667 48.2187L34.8438 48.3955L35.0205 48.5723L46.4834 37.1094L46.3066 36.9326ZM34.8438 48.3955L34.6671 48.2186C34.5263 48.3591 34.3351 48.4385 34.1367 48.4385V48.6885V48.9385C34.4682 48.9385 34.7862 48.8062 35.0204 48.5724L34.8438 48.3955ZM34.1367 48.6885L34.1368 48.4385C33.9382 48.4384 33.747 48.3592 33.6064 48.2187L33.4297 48.3955L33.253 48.5723C33.4872 48.8064 33.8054 48.9383 34.1366 48.9385L34.1367 48.6885ZM33.4297 48.3955L33.6065 48.2187L27.1319 41.7432L26.9551 41.9199L26.7783 42.0967L33.2529 48.5723L33.4297 48.3955ZM26.9551 41.9199L27.1319 41.7432C26.8392 41.4504 26.8392 40.9755 27.1319 40.6826L26.9551 40.5059L26.7782 40.3291C26.2905 40.8172 26.2903 41.6086 26.7783 42.0967L26.9551 41.9199ZM26.9551 40.5059L27.1318 40.6827C27.4247 40.3899 27.8995 40.3899 28.1924 40.6827L28.3691 40.5059L28.5459 40.3291C28.0578 39.8411 27.2665 39.8411 26.7783 40.3291L26.9551 40.5059ZM28.3691 40.5059L28.1924 40.6826L33.9599 46.4502L34.1367 46.2734L34.3135 46.0967L28.5459 40.3291L28.3691 40.5059ZM34.1367 46.2734L34.3135 46.4502L45.0693 35.6953L44.8926 35.5186L44.7158 35.3418L33.9599 46.0967L34.1367 46.2734ZM39.125 8.625V8.875C41.4642 8.875 43.375 10.7858 43.375 13.125H43.625H43.875C43.875 10.5096 41.7404 8.375 39.125 8.375V8.625ZM43.625 13.125H43.375V35H43.625H43.875V13.125H43.625ZM43.625 35H43.375C43.375 35.4142 43.0392 35.75 42.625 35.75V36V36.25C43.3154 36.25 43.875 35.6904 43.875 35H43.625ZM42.625 36V35.75C42.2108 35.75 41.875 35.4142 41.875 35H41.625H41.375C41.375 35.6904 41.9346 36.25 42.625 36.25V36ZM41.625 35H41.875V13.125H41.625H41.375V35H41.625ZM41.625 13.125H41.875C41.875 11.6142 40.6358 10.375 39.125 10.375V10.625V10.875C40.3596 10.875 41.375 11.8904 41.375 13.125H41.625ZM39.125 10.625V10.375H33V10.625V10.875H39.125V10.625ZM33 10.625V10.375C32.5858 10.375 32.25 10.0392 32.25 9.625H32H31.75C31.75 10.3154 32.3096 10.875 33 10.875V10.625ZM32 9.625H32.25C32.25 9.21079 32.5858 8.875 33 8.875V8.625V8.375C32.3096 8.375 31.75 8.93464 31.75 9.625H32ZM33 8.625V8.875H39.125V8.625V8.375H33V8.625ZM17.25 31.9873V32.2373C18.1475 32.2373 18.875 32.9648 18.875 33.8623H19.125H19.375C19.375 32.6887 18.4236 31.7373 17.25 31.7373V31.9873ZM19.125 33.8623H18.875C18.875 34.7598 18.1475 35.4873 17.25 35.4873V35.7373V35.9873C18.4236 35.9873 19.375 35.0359 19.375 33.8623H19.125ZM17.25 35.7373V35.4873C16.3525 35.4873 15.625 34.7598 15.625 33.8623H15.375H15.125C15.125 35.0359 16.0764 35.9873 17.25 35.9873V35.7373ZM15.375 33.8623H15.625C15.625 32.9648 16.3525 32.2373 17.25 32.2373V31.9873V31.7373C16.0764 31.7373 15.125 32.6887 15.125 33.8623H15.375ZM35.625 33.125V33.375C36.0392 33.375 36.375 33.7108 36.375 34.125H36.625H36.875C36.875 33.4346 36.3154 32.875 35.625 32.875V33.125ZM36.625 34.125H36.375C36.375 34.5392 36.0392 34.875 35.625 34.875V35.125V35.375C36.3154 35.375 36.875 34.8154 36.875 34.125H36.625ZM35.625 35.125V34.875H23.375V35.125V35.375H35.625V35.125ZM23.375 35.125V34.875C22.9608 34.875 22.625 34.5392 22.625 34.125H22.375H22.125C22.125 34.8154 22.6846 35.375 23.375 35.375V35.125ZM22.375 34.125H22.625C22.625 33.7108 22.9608 33.375 23.375 33.375V33.125V32.875C22.6846 32.875 22.125 33.4346 22.125 34.125H22.375ZM23.375 33.125V33.375H35.625V33.125V32.875H23.375V33.125ZM17.25 33.7373V33.4873C17.0429 33.4873 16.875 33.6552 16.875 33.8623H17.125H17.375C17.375 33.9313 17.319 33.9873 17.25 33.9873V33.7373ZM17.125 33.8623H16.875C16.875 34.0694 17.0429 34.2373 17.25 34.2373V33.9873V33.7373C17.319 33.7373 17.375 33.7933 17.375 33.8623H17.125ZM17.25 33.9873V34.2373C17.4571 34.2373 17.625 34.0694 17.625 33.8623H17.375H17.125C17.125 33.7933 17.181 33.7373 17.25 33.7373V33.9873ZM17.375 33.8623H17.625C17.625 33.6552 17.4571 33.4873 17.25 33.4873V33.7373V33.9873C17.181 33.9873 17.125 33.9313 17.125 33.8623H17.375ZM17.25 25.8623V26.1123C18.1475 26.1123 18.875 26.8398 18.875 27.7373H19.125H19.375C19.375 26.5637 18.4236 25.6123 17.25 25.6123V25.8623ZM19.125 27.7373H18.875C18.875 28.6348 18.1475 29.3623 17.25 29.3623V29.6123V29.8623C18.4236 29.8623 19.375 28.9109 19.375 27.7373H19.125ZM17.25 29.6123V29.3623C16.3525 29.3623 15.625 28.6348 15.625 27.7373H15.375H15.125C15.125 28.9109 16.0764 29.8623 17.25 29.8623V29.6123ZM15.375 27.7373H15.625C15.625 26.8398 16.3525 26.1123 17.25 26.1123V25.8623V25.6123C16.0764 25.6123 15.125 26.5637 15.125 27.7373H15.375ZM35.625 27V27.25C36.0392 27.25 36.375 27.5858 36.375 28H36.625H36.875C36.875 27.3096 36.3154 26.75 35.625 26.75V27ZM36.625 28H36.375C36.375 28.4142 36.0392 28.75 35.625 28.75V29V29.25C36.3154 29.25 36.875 28.6904 36.875 28H36.625ZM35.625 29V28.75H23.375V29V29.25H35.625V29ZM23.375 29V28.75C22.9608 28.75 22.625 28.4142 22.625 28H22.375H22.125C22.125 28.6904 22.6846 29.25 23.375 29.25V29ZM22.375 28H22.625C22.625 27.5858 22.9608 27.25 23.375 27.25V27V26.75C22.6846 26.75 22.125 27.3096 22.125 28H22.375ZM23.375 27V27.25H35.625V27V26.75H23.375V27ZM17.25 27.6123V27.3623C17.0429 27.3623 16.875 27.5302 16.875 27.7373H17.125H17.375C17.375 27.8063 17.319 27.8623 17.25 27.8623V27.6123ZM17.125 27.7373H16.875C16.875 27.9444 17.0429 28.1123 17.25 28.1123V27.8623V27.6123C17.319 27.6123 17.375 27.6683 17.375 27.7373H17.125ZM17.25 27.8623V28.1123C17.4571 28.1123 17.625 27.9444 17.625 27.7373H17.375H17.125C17.125 27.6683 17.181 27.6123 17.25 27.6123V27.8623ZM17.375 27.7373H17.625C17.625 27.5302 17.4571 27.3623 17.25 27.3623V27.6123V27.8623C17.181 27.8623 17.125 27.8063 17.125 27.7373H17.375ZM17.25 19.7373V19.9873C18.1475 19.9873 18.875 20.7148 18.875 21.6123H19.125H19.375C19.375 20.4387 18.4236 19.4873 17.25 19.4873V19.7373ZM19.125 21.6123H18.875C18.875 22.5098 18.1475 23.2373 17.25 23.2373V23.4873V23.7373C18.4236 23.7373 19.375 22.7859 19.375 21.6123H19.125ZM17.25 23.4873V23.2373C16.3525 23.2373 15.625 22.5098 15.625 21.6123H15.375H15.125C15.125 22.7859 16.0764 23.7373 17.25 23.7373V23.4873ZM15.375 21.6123H15.625C15.625 20.7148 16.3525 19.9873 17.25 19.9873V19.7373V19.4873C16.0764 19.4873 15.125 20.4387 15.125 21.6123H15.375ZM35.625 20.875V21.125C36.0392 21.125 36.375 21.4608 36.375 21.875H36.625H36.875C36.875 21.1846 36.3154 20.625 35.625 20.625V20.875ZM36.625 21.875H36.375C36.375 22.2892 36.0392 22.625 35.625 22.625V22.875V23.125C36.3154 23.125 36.875 22.5654 36.875 21.875H36.625ZM35.625 22.875V22.625H23.375V22.875V23.125H35.625V22.875ZM23.375 22.875V22.625C22.9608 22.625 22.625 22.2892 22.625 21.875H22.375H22.125C22.125 22.5654 22.6846 23.125 23.375 23.125V22.875ZM22.375 21.875H22.625C22.625 21.4608 22.9608 21.125 23.375 21.125V20.875V20.625C22.6846 20.625 22.125 21.1846 22.125 21.875H22.375ZM23.375 20.875V21.125H35.625V20.875V20.625H23.375V20.875ZM17.25 21.4873V21.2373C17.0429 21.2373 16.875 21.4052 16.875 21.6123H17.125H17.375C17.375 21.6813 17.319 21.7373 17.25 21.7373V21.4873ZM17.125 21.6123H16.875C16.875 21.8194 17.0429 21.9873 17.25 21.9873V21.7373V21.4873C17.319 21.4873 17.375 21.5433 17.375 21.6123H17.125ZM17.25 21.7373V21.9873C17.4571 21.9873 17.625 21.8194 17.625 21.6123H17.375H17.125C17.125 21.5433 17.181 21.4873 17.25 21.4873V21.7373ZM17.375 21.6123H17.625C17.625 21.4052 17.4571 21.2373 17.25 21.2373V21.4873V21.7373C17.181 21.7373 17.125 21.6813 17.125 21.6123H17.375ZM27.75 3.375V3.625C28.1834 3.625 28.6026 3.77256 28.915 4.08498L29.0918 3.9082L29.2686 3.73143C28.8492 3.31204 28.2961 3.125 27.75 3.125V3.375ZM29.0918 3.9082L28.915 4.08498C29.2274 4.3974 29.375 4.8166 29.375 5.25H29.625H29.875C29.875 4.70391 29.688 4.15082 29.2686 3.73143L29.0918 3.9082ZM29.625 5.25H29.375V6.00488H29.625H29.875V5.25H29.625ZM29.625 6.00488L29.6103 6.25445C30.0045 6.27766 30.3794 6.42432 30.665 6.70998L30.8418 6.5332L31.0186 6.35643C30.6348 5.97265 30.1388 5.7847 29.6397 5.75531L29.625 6.00488ZM30.8418 6.5332L30.665 6.70998C30.9774 7.0224 31.125 7.4416 31.125 7.875H31.375H31.625C31.625 7.32891 31.438 6.77582 31.0186 6.35643L30.8418 6.5332ZM31.375 7.875H31.125V10.5H31.375H31.625V7.875H31.375ZM31.375 10.5H31.125C31.125 10.9334 30.9774 11.3526 30.665 11.665L30.8418 11.8418L31.0186 12.0186C31.438 11.5992 31.625 11.0461 31.625 10.5H31.375ZM30.8418 11.8418L30.665 11.665C30.3526 11.9774 29.9334 12.125 29.5 12.125V12.375V12.625C30.0461 12.625 30.5992 12.438 31.0186 12.0186L30.8418 11.8418ZM29.5 12.375V12.125H22.5V12.375V12.625H29.5V12.375ZM22.5 12.375V12.125C22.0666 12.125 21.6474 11.9774 21.335 11.665L21.1582 11.8418L20.9814 12.0186C21.4008 12.438 21.9539 12.625 22.5 12.625V12.375ZM21.1582 11.8418L21.335 11.665C21.0226 11.3526 20.875 10.9334 20.875 10.5H20.625H20.375C20.375 11.0461 20.562 11.5992 20.9814 12.0186L21.1582 11.8418ZM20.625 10.5H20.875V7.78711H20.625H20.375V10.5H20.625ZM20.625 7.78711L20.875 7.78716C20.8752 6.9465 21.5436 6.268 22.3801 6.25092L22.375 6.00098L22.3699 5.75103C21.262 5.77365 20.3752 6.67358 20.375 7.78706L20.625 7.78711ZM22.375 6.00098H22.625V5.25H22.375H22.125V6.00098H22.375ZM22.375 5.25H22.625C22.625 4.8166 22.7726 4.3974 23.085 4.08498L22.9082 3.9082L22.7314 3.73143C22.312 4.15082 22.125 4.70391 22.125 5.25H22.375ZM22.9082 3.9082L23.085 4.08498C23.3974 3.77256 23.8166 3.625 24.25 3.625V3.375V3.125C23.7039 3.125 23.1508 3.31204 22.7314 3.73143L22.9082 3.9082ZM24.25 3.375V3.625H27.75V3.375V3.125H24.25V3.375ZM22.625 10.375V10.625H29.375V10.375V10.125H22.625V10.375ZM29.375 10.375H29.625V8H29.375H29.125V10.375H29.375ZM29.375 8V7.75H22.625V8V8.25H29.375V8ZM22.625 8H22.375V10.375H22.625H22.875V8H22.625ZM24.375 6V6.25H27.625V6V5.75H24.375V6ZM27.625 6H27.875V5.375H27.625H27.375V6H27.625ZM27.625 5.375V5.125H24.375V5.375V5.625H27.625V5.375ZM24.375 5.375H24.125V6H24.375H24.625V5.375H24.375Z" fill="white"/>
</svg>
